<svg xmlns="http://www.w3.org/2000/svg" width="64" height="64" viewBox="0 0 64 64" fill="none">
    <path d="M16.5004 50.6648V46.8752H11.7504V50.6648C11.7504 50.897 11.8892 51.1252 12.1214 51.1252H16.0571C16.1749 51.1171 16.2855 51.0655 16.3674 50.9804C16.4494 50.8953 16.4968 50.7828 16.5004 50.6648ZM35.7083 32.8752H27.1741C26.1318 32.8752 24.9328 33.756 24.6082 34.7477L24.1629 36.1252H35.7089C35.8532 36.1373 35.9943 36.1741 36.1261 36.234V32.8492C35.9895 32.8829 35.848 32.8917 35.7083 32.8752ZM12.2031 22.1493C11.0289 22.1472 9.42956 22.1445 8.44056 22.1445C7.12268 22.1445 6.03943 22.7375 5.74518 23.6195C5.6455 23.9212 5.5646 24.2287 5.50293 24.5404L10.8571 24.5335L12.2031 22.1493Z" fill="#8491A6"/>
    <path d="M14.3623 37.7949C15.3627 37.7949 16.1738 36.9838 16.1738 35.9834C16.1738 34.9829 15.3627 34.1719 14.3623 34.1719C13.3618 34.1719 12.5508 34.9829 12.5508 35.9834C12.5508 36.9838 13.3618 37.7949 14.3623 37.7949Z" fill="#8491A6"/>
    <path d="M48.9886 32.0001C48.9886 25.6829 44.0011 20.4807 37.8761 20.0166V43.9836C44.0005 43.5194 48.9886 38.3172 48.9886 32.0001Z" fill="#8491A6"/>
    <path d="M39.8277 49.6146C39.8452 49.4287 39.921 49.2531 40.0442 49.1128C40.1674 48.9725 40.3317 48.8747 40.5138 48.8334C42.5586 48.3772 44.5039 47.5546 46.2557 46.4055C46.4117 46.3043 46.5959 46.2554 46.7816 46.266C46.9673 46.2766 47.1448 46.3461 47.2883 46.4644L50.4583 49.0882L54.0022 45.5438L51.3772 42.3734C51.2571 42.2284 51.187 42.0486 51.1772 41.8606C51.1674 41.6726 51.2185 41.4865 51.3229 41.3299C52.4764 39.5855 53.2956 37.642 53.7389 35.5983C53.7782 35.417 53.8741 35.2529 54.0127 35.1297C54.1513 35.0064 54.3255 34.9304 54.5101 34.9126L58.6257 34.516V29.484L54.5099 29.0875C54.3253 29.0697 54.1512 28.9937 54.0126 28.8705C53.874 28.7473 53.7781 28.5832 53.7388 28.402C53.283 26.3576 52.4621 24.4121 51.3156 22.6591C51.2148 22.5029 51.1665 22.3186 51.1776 22.133C51.1886 21.9474 51.2585 21.7702 51.3771 21.627L54.0021 18.457L50.4583 14.9125L47.2883 17.5375C47.1433 17.6576 46.9634 17.7277 46.7754 17.7374C46.5873 17.7471 46.4012 17.6959 46.2446 17.5914C44.501 16.437 42.5576 15.6179 40.5138 15.1759C40.3311 15.1323 40.1666 15.0326 40.0435 14.8907C39.9204 14.7488 39.8449 14.5718 39.8277 14.3848L39.4312 10.25H37.8757V18.2625C45.0007 18.7301 50.7382 24.718 50.7382 32C50.7382 39.282 45.0007 45.2695 37.8757 45.7375V53.75H39.4312L39.8277 49.6146ZM36.1257 25.45V12.5267C35.9934 12.5834 35.8522 12.6166 35.7086 12.625H22.6059C19.6659 12.625 17.8076 15.5411 16.9616 17.2852C16.9536 17.3016 16.9452 17.3145 16.9366 17.3302L12.3939 25.375H35.7086C35.8509 25.3753 35.9921 25.4006 36.1257 25.45ZM10.8952 27.125C10.8424 27.1239 10.7899 27.118 10.7382 27.1074C9.00169 27.2062 7.26619 28.7481 7.24219 31.2774L8.75669 43.2414C8.76133 43.2873 8.76367 43.3334 8.76369 43.3795C8.76311 43.8377 8.94294 44.2777 9.26428 44.6044C9.58563 44.931 10.0226 45.1181 10.4808 45.125H36.1257V41.1442C35.9938 41.2032 35.8526 41.239 35.7086 41.25H20.4348C20.2027 41.25 19.9802 41.1578 19.8161 40.9937C19.652 40.8296 19.5598 40.6071 19.5598 40.375C19.5598 40.1429 19.652 39.9204 19.8161 39.7563C19.9802 39.5922 20.2027 39.5 20.4348 39.5H35.7086C35.8496 39.4921 35.9908 39.5095 36.1257 39.5514V37.8264C35.9906 37.8672 35.8494 37.8836 35.7086 37.8746H22.9566C22.8195 37.8781 22.6836 37.8485 22.5603 37.7883C22.4371 37.7282 22.3302 37.6392 22.2486 37.529C22.167 37.4187 22.1131 37.2905 22.0916 37.155C22.0701 37.0196 22.0815 36.881 22.1248 36.7509L22.9452 34.2147C23.5077 32.4942 25.3658 31.1246 27.1743 31.1246H35.7086C35.854 31.1448 35.995 31.1893 36.1257 31.2561V27.0436C35.9925 27.0951 35.8513 27.1229 35.7086 27.1255L10.8952 27.125ZM14.3632 39.5452C13.6588 39.5452 12.9702 39.3364 12.3845 38.945C11.7987 38.5537 11.3422 37.9974 11.0727 37.3466C10.8031 36.6958 10.7326 35.9797 10.87 35.2888C11.0074 34.5979 11.3466 33.9633 11.8447 33.4652C12.3428 32.9671 12.9775 32.6279 13.6683 32.4904C14.3592 32.353 15.0754 32.4235 15.7262 32.6931C16.377 32.9627 16.9332 33.4192 17.3246 34.0049C17.7159 34.5906 17.9248 35.2792 17.9248 35.9836C17.9238 36.9279 17.5482 37.8332 16.8805 38.5009C16.2128 39.1686 15.3075 39.5442 14.3632 39.5452Z" fill="#8491A6"/>
</svg>