<svg id="Layer_1" data-name="Layer 1" xmlns="http://www.w3.org/2000/svg" viewBox="0 0 24 24"><path d="M7.18,22a1.79,1.79,0,0,1-1.8-1.81A1.72,1.72,0,0,1,5.9,18.9a1.74,1.74,0,0,1,1.28-.52A1.79,1.79,0,0,1,9,20.17a1.75,1.75,0,0,1-.53,1.28A1.73,1.73,0,0,1,7.18,22Zm10,0a1.79,1.79,0,0,1-1.8-1.81,1.72,1.72,0,0,1,.52-1.27,1.74,1.74,0,0,1,1.28-.52A1.79,1.79,0,0,1,19,20.17a1.75,1.75,0,0,1-.53,1.28A1.73,1.73,0,0,1,17.18,22ZM5.13,4H19.85a1,1,0,0,1,.88.53,1,1,0,0,1,0,1l-3.38,6.08a2.25,2.25,0,0,1-.71.76,1.72,1.72,0,0,1-1,.29H8.1L6.7,15.27H19v1.5h-12a1.7,1.7,0,0,1-1.52-.69,1.44,1.44,0,0,1,0-1.58L7,11.55l-3.8-8H1.28V2H4.2Z"/></svg>