<svg width="20" height="20" viewBox="0 0 20 20" fill="none" xmlns="http://www.w3.org/2000/svg">
<path d="M5.97917 18.3123C5.5625 18.3123 5.20833 18.1665 4.91667 17.8748C4.625 17.5832 4.47917 17.229 4.47917 16.8123C4.47917 16.3957 4.625 16.0415 4.91667 15.7498C5.20833 15.4582 5.5625 15.3123 5.97917 15.3123C6.39583 15.3123 6.75 15.4582 7.04167 15.7498C7.33333 16.0415 7.47917 16.3957 7.47917 16.8123C7.47917 17.229 7.33333 17.5832 7.04167 17.8748C6.75 18.1665 6.39583 18.3123 5.97917 18.3123ZM14.3125 18.3123C13.8958 18.3123 13.5417 18.1665 13.25 17.8748C12.9583 17.5832 12.8125 17.229 12.8125 16.8123C12.8125 16.3957 12.9583 16.0415 13.25 15.7498C13.5417 15.4582 13.8958 15.3123 14.3125 15.3123C14.7292 15.3123 15.0833 15.4582 15.375 15.7498C15.6667 16.0415 15.8125 16.3957 15.8125 16.8123C15.8125 17.229 15.6667 17.5832 15.375 17.8748C15.0833 18.1665 14.7292 18.3123 14.3125 18.3123ZM4.27083 3.31234H16.5417C16.8611 3.31234 17.1042 3.45817 17.2708 3.74984C17.4375 4.0415 17.4375 4.33317 17.2708 4.62484L14.4583 9.68734C14.3056 9.95123 14.1076 10.163 13.8646 10.3228C13.6215 10.4825 13.3542 10.5623 13.0625 10.5623H6.75L5.58333 12.729H15.8125V13.979H5.77083C5.1875 13.979 4.76736 13.7846 4.51042 13.3957C4.25347 13.0068 4.25694 12.5693 4.52083 12.0832L5.85417 9.62484L2.6875 2.9165H1.0625V1.6665H3.5L4.27083 3.31234Z" fill="white"/>
</svg>
