<svg width="24" height="24" viewBox="0 0 24 24" fill="none" xmlns="http://www.w3.org/2000/svg">
<path d="M6.18754 18.9993V17.5782H4.40629V18.9993C4.40629 19.0864 4.45832 19.1719 4.54541 19.1719H6.02127C6.06546 19.1689 6.10694 19.1496 6.13767 19.1176C6.16839 19.0857 6.18617 19.0436 6.18754 18.9993ZM13.3905 12.3282H10.1901C9.7993 12.3282 9.34968 12.6585 9.22795 13.0304L9.06098 13.5469H13.3907C13.4448 13.5515 13.4977 13.5653 13.5471 13.5878V12.3184C13.4959 12.3311 13.4429 12.3344 13.3905 12.3282ZM4.57602 8.30598C4.13573 8.30518 3.53596 8.3042 3.16509 8.3042C2.67088 8.3042 2.26466 8.52657 2.15432 8.85732C2.11694 8.97045 2.0866 9.08578 2.06348 9.20265L4.07127 9.20007L4.57602 8.30598Z" fill="#8491A6"/>
<path d="M5.38634 14.1731C5.76152 14.1731 6.06566 13.8689 6.06566 13.4938C6.06566 13.1186 5.76152 12.8145 5.38634 12.8145C5.01117 12.8145 4.70703 13.1186 4.70703 13.4938C4.70703 13.8689 5.01117 14.1731 5.38634 14.1731Z" fill="#8491A6"/>
<path d="M18.3703 12.0002C18.3703 9.63119 16.5 7.68039 14.2031 7.50635V16.494C16.4998 16.3199 18.3703 14.3691 18.3703 12.0002Z" fill="#8491A6"/>
<path d="M14.9351 18.6055C14.9417 18.5358 14.9701 18.4699 15.0163 18.4173C15.0625 18.3647 15.1242 18.328 15.1924 18.3125C15.9592 18.1414 16.6887 17.833 17.3456 17.4021C17.4042 17.3641 17.4732 17.3458 17.5429 17.3498C17.6125 17.3537 17.6791 17.3798 17.7329 17.4241L18.9216 18.4081L20.2506 17.0789L19.2662 15.89C19.2212 15.8357 19.1949 15.7682 19.1912 15.6977C19.1875 15.6272 19.2067 15.5574 19.2459 15.4987C19.6784 14.8446 19.9856 14.1157 20.1519 13.3493C20.1666 13.2814 20.2025 13.2198 20.2545 13.1736C20.3065 13.1274 20.3718 13.0989 20.441 13.0922L21.9844 12.9435V11.0565L20.441 10.9078C20.3718 10.9011 20.3065 10.8726 20.2545 10.8264C20.2025 10.7802 20.1665 10.7187 20.1518 10.6508C19.9809 9.88409 19.673 9.15455 19.2431 8.49717C19.2053 8.43857 19.1872 8.36947 19.1913 8.29988C19.1955 8.23029 19.2217 8.16382 19.2662 8.11013L20.2505 6.92138L18.9216 5.59219L17.7329 6.57656C17.6785 6.62159 17.611 6.64788 17.5405 6.65152C17.47 6.65516 17.4002 6.63596 17.3415 6.59677C16.6876 6.16389 15.9589 5.8567 15.1924 5.69095C15.1239 5.67463 15.0622 5.63722 15.0161 5.58401C14.9699 5.53079 14.9416 5.46443 14.9351 5.39428L14.7865 3.84375H14.2031V6.84844C16.875 7.0238 19.0266 9.26925 19.0266 12C19.0266 14.7308 16.875 16.9761 14.2031 17.1516V20.1562H14.7865L14.9351 18.6055ZM13.5469 9.54375V4.69753C13.4973 4.71877 13.4443 4.73123 13.3905 4.73438H8.47698C7.37448 4.73438 6.67759 5.82792 6.36034 6.48197C6.35734 6.48811 6.3542 6.49294 6.35097 6.49884L4.64748 9.51562H13.3905C13.4439 9.51572 13.4968 9.52524 13.5469 9.54375ZM4.08545 10.1719C4.06567 10.1715 4.04596 10.1692 4.02658 10.1653C3.37539 10.2023 2.72458 10.7805 2.71558 11.729L3.28351 16.2155C3.28526 16.2327 3.28613 16.25 3.28614 16.2673C3.28592 16.4391 3.35336 16.6042 3.47386 16.7266C3.59437 16.8491 3.75825 16.9193 3.93006 16.9219H13.5469V15.4291C13.4974 15.4512 13.4445 15.4646 13.3905 15.4688H7.66281C7.57579 15.4688 7.49233 15.4342 7.43079 15.3726C7.36926 15.3111 7.33469 15.2276 7.33469 15.1406C7.33469 15.0536 7.36926 14.9701 7.43079 14.9086C7.49233 14.8471 7.57579 14.8125 7.66281 14.8125H13.3905C13.4433 14.8095 13.4963 14.8161 13.5469 14.8318V14.1849C13.4962 14.2002 13.4433 14.2063 13.3905 14.203H8.60847C8.55706 14.2043 8.50609 14.1932 8.45988 14.1706C8.41366 14.1481 8.37356 14.1147 8.34297 14.0734C8.31237 14.032 8.29218 13.9839 8.28411 13.9331C8.27603 13.8824 8.2803 13.8304 8.29656 13.7816L8.6042 12.8305C8.81514 12.1853 9.51194 11.6717 10.1901 11.6717H13.3905C13.445 11.6793 13.4979 11.696 13.5469 11.721V10.1414C13.4969 10.1607 13.444 10.1711 13.3905 10.1721L4.08545 10.1719ZM5.38595 14.8295C5.12179 14.8295 4.86357 14.7511 4.64393 14.6044C4.42429 14.4576 4.2531 14.249 4.15201 14.005C4.05092 13.7609 4.02447 13.4924 4.07601 13.2333C4.12754 12.9742 4.25474 12.7362 4.44153 12.5494C4.62832 12.3627 4.8663 12.2354 5.12539 12.1839C5.38447 12.1324 5.65302 12.1588 5.89707 12.2599C6.14112 12.361 6.34971 12.5322 6.49647 12.7518C6.64323 12.9715 6.72156 13.2297 6.72156 13.4939C6.72116 13.848 6.58032 14.1874 6.32993 14.4378C6.07954 14.6882 5.74006 14.8291 5.38595 14.8295Z" fill="#8491A6"/>
</svg>
