<svg width="16" height="17" viewBox="0 0 16 17" fill="none" xmlns="http://www.w3.org/2000/svg">
<path d="M7.3338 13.9336C7.12269 13.9336 6.94213 13.8586 6.79213 13.7086C6.64213 13.5586 6.56713 13.378 6.56713 13.1669V9.20023L2.60046 4.15023C2.42269 3.91689 2.39769 3.67801 2.52546 3.43356C2.65324 3.18912 2.85602 3.06689 3.1338 3.06689H12.8671C13.1449 3.06689 13.3477 3.18912 13.4755 3.43356C13.6032 3.67801 13.5782 3.91689 13.4005 4.15023L9.4338 9.20023V13.2002C9.4338 13.4113 9.36435 13.5863 9.22546 13.7252C9.08658 13.8641 8.91158 13.9336 8.70046 13.9336H7.3338Z" fill="white"/>
</svg>
