<svg id="Layer_1" data-name="Layer 1" xmlns="http://www.w3.org/2000/svg" viewBox="0 0 24 24"><path d="M11.93,21A8.54,8.54,0,0,1,5.6,18.36,8.76,8.76,0,0,1,3,12H4.5A7.35,7.35,0,0,0,6.65,17.3a7.07,7.07,0,0,0,5.28,2.2,7.25,7.25,0,0,0,5.37-2.23,7.36,7.36,0,0,0,2.2-5.39,7,7,0,0,0-2.23-5.24A7.41,7.41,0,0,0,11.93,4.5a6.75,6.75,0,0,0-3.19.78,8.55,8.55,0,0,0-2.59,2H8.77v1.5H3.55V3.63h1.5V6.28a9.49,9.49,0,0,1,3.09-2.4A8.4,8.4,0,0,1,11.93,3a8.85,8.85,0,0,1,3.52.7,9.33,9.33,0,0,1,2.89,1.91,9.21,9.21,0,0,1,1.95,2.84A8.69,8.69,0,0,1,21,12a8.9,8.9,0,0,1-.71,3.53,9.23,9.23,0,0,1-1.95,2.87,9.41,9.41,0,0,1-2.89,1.94A8.86,8.86,0,0,1,11.93,21Zm3.2-4.92-3.86-3.81V6.93h1.5v4.72L16.2,15Z"/></svg>