<svg id="Layer_1" data-name="Layer 1" xmlns="http://www.w3.org/2000/svg" viewBox="0 0 206.31 37.61"><defs><style>.cls-1{fill:#268ae5;}.cls-2{fill:#fff;}</style></defs><path class="cls-1" d="M21.13,18.07,15.47,28H26.82Z"/><path class="cls-2" d="M16,9,0,37H5L18.5,13.42Z"/><path class="cls-2" d="M37.13,28l-16-28L18.65,4.43,32.12,28Z"/><path class="cls-2" d="M39.8,32.57h-27L10.31,37h32Z"/><path class="cls-1" d="M47.52,15.36H51l4.71-8.58,1.82,3.33H55.16L53.59,13h5.47l1.28,2.4h3.48L55.67.25Z"/><path class="cls-1" d="M115.85,5.2a6.86,6.86,0,0,0-1.68-2.35,8,8,0,0,0-2.46-1.55,8.31,8.31,0,0,0-6,0,8,8,0,0,0-2.47,1.55,6.89,6.89,0,0,0-1.65,2.35,6.71,6.71,0,0,0-.61,2.88,6.55,6.55,0,0,0,.61,2.85,7.14,7.14,0,0,0,1.65,2.31,8,8,0,0,0,2.47,1.56,8.45,8.45,0,0,0,6,0,7.7,7.7,0,0,0,2.46-1.56,7.32,7.32,0,0,0,1.66-2.31,6.74,6.74,0,0,0,.61-2.85A6.55,6.55,0,0,0,115.85,5.2Zm-2.57,2.88a4,4,0,0,1-.37,1.72,4.41,4.41,0,0,1-1,1.41,4.71,4.71,0,0,1-5,1,4.52,4.52,0,0,1-1.46-1,4.11,4.11,0,0,1-1-1.41,4.09,4.09,0,0,1-.36-1.72,4,4,0,0,1,.36-1.73,5,5,0,0,1,1-1.44,4.87,4.87,0,0,1,1.46-1,4.8,4.8,0,0,1,1.77-.34,4.42,4.42,0,0,1,1.79.37,5,5,0,0,1,1.48,1,4,4,0,0,1,1,1.44A3.88,3.88,0,0,1,113.28,8.08Z"/><path class="cls-1" d="M84.18,3.64h6.41V15.36H93.7V3.64h2.46L99.86.79H87Z"/><path class="cls-1" d="M76.51,10.36a2,2,0,0,1-.17.82,2.25,2.25,0,0,1-.51.68,2.28,2.28,0,0,1-.78.48,2.79,2.79,0,0,1-1.93,0,2,2,0,0,1-.76-.48,1.8,1.8,0,0,1-.5-.71,1.78,1.78,0,0,1-.17-.81V0L68.61,3.5v6.86a4.33,4.33,0,0,0,.45,2,5,5,0,0,0,1.17,1.58A5.9,5.9,0,0,0,72,15a6,6,0,0,0,2.13.39A6.16,6.16,0,0,0,76.25,15,5.69,5.69,0,0,0,78,13.92a4.77,4.77,0,0,0,1.2-1.58,4.33,4.33,0,0,0,.45-2V0L76.59,3.5v6.86Z"/><path class="cls-2" d="M51.94,27.05a4.87,4.87,0,0,1,1.46-1,4.68,4.68,0,0,1,1.76-.34,4.44,4.44,0,0,1,2.13.51,4.77,4.77,0,0,1,1.6,1.39l.28.36,2.52-1.75-.31-.39a7.68,7.68,0,0,0-2.66-2.15,7.78,7.78,0,0,0-3.53-.79,8.29,8.29,0,0,0-3,.56,7.57,7.57,0,0,0-2.43,1.56,7.32,7.32,0,0,0-1.66,2.31,7,7,0,0,0,0,5.71,7.32,7.32,0,0,0,1.66,2.31,7.91,7.91,0,0,0,2.43,1.56,8.29,8.29,0,0,0,3,.56,7.72,7.72,0,0,0,6.19-2.94l.31-.39-2.52-1.75-.28.37a4.85,4.85,0,0,1-1.6,1.38,4.44,4.44,0,0,1-2.13.51,4.68,4.68,0,0,1-1.76-.34,4.87,4.87,0,0,1-1.46-1A4.64,4.64,0,0,1,51,32a4.5,4.5,0,0,1-.36-1.73A4,4,0,0,1,51,28.52,4.26,4.26,0,0,1,51.94,27.05Z"/><path class="cls-2" d="M167.86,31.4l2.72-2.85h-9l-.14.11V25.78h6.38l2.72-2.85h-9l-.14.11V22.9h-3V37.42h.05l-.05,0h9.38l2.72-2.85h-9l-.14.12V31.4Z"/><path class="cls-2" d="M154.53,26.35,151.39,22v7.77l3.14,3.64Z"/><path class="cls-2" d="M140.92,37.61h3V29.76l7,7.85h4.15L140.92,22Z"/><path class="cls-2" d="M117.06,27.65v-.09c0-.06,0-.08,0-.14s0-.17,0-.25l0-.17a1.35,1.35,0,0,0-.11-.34,5.56,5.56,0,0,0-.92-1.67,5.83,5.83,0,0,0-1.49-1.24,6.9,6.9,0,0,0-3.47-.88h-6l2.8,2.71h3.53a2.48,2.48,0,0,1,1,.23,2.72,2.72,0,0,1,.84.59,3.5,3.5,0,0,1,.56.82,2.52,2.52,0,0,1,0,1.92,2.35,2.35,0,0,1-.56.82,2.56,2.56,0,0,1-.84.59,2.43,2.43,0,0,1-1,.23h-2.49V27.36L105.6,31V37.5h3.14v-4H111a7.75,7.75,0,0,0,1.85-.22,7.46,7.46,0,0,0,1.62-.62,5.86,5.86,0,0,0,1.49-1.25,4.64,4.64,0,0,0,.92-1.63,1.85,1.85,0,0,1,.09-.23s0-.09,0-.11l.12-.65a1.14,1.14,0,0,0,0-.26V27.9A.94.94,0,0,0,117.06,27.65Z"/><path class="cls-2" d="M77.79,25a8,8,0,0,0-2.46-1.55,8.31,8.31,0,0,0-6,0A8,8,0,0,0,66.81,25a6.89,6.89,0,0,0-1.65,2.35,6.72,6.72,0,0,0-.62,2.88,6.56,6.56,0,0,0,.62,2.85,7.14,7.14,0,0,0,1.65,2.31,8,8,0,0,0,2.47,1.56,8.45,8.45,0,0,0,6,0,7.7,7.7,0,0,0,2.46-1.56,7.14,7.14,0,0,0,1.65-2.31,6.93,6.93,0,0,0,0-5.73A6.89,6.89,0,0,0,77.79,25Zm-1.26,7a4.64,4.64,0,0,1-1,1.41,4.78,4.78,0,0,1-1.48,1,4.58,4.58,0,0,1-3.56,0,4.47,4.47,0,0,1-1.46-1,4.31,4.31,0,0,1-1-1.41,4.09,4.09,0,0,1-.36-1.72,4,4,0,0,1,.36-1.73,5,5,0,0,1,1-1.44,4.87,4.87,0,0,1,1.46-1,4.79,4.79,0,0,1,1.76-.34,4.43,4.43,0,0,1,1.8.37,5,5,0,0,1,1.48,1,4.19,4.19,0,0,1,1,1.44,4.1,4.1,0,0,1,.37,1.72A5,5,0,0,1,76.53,31.94Z"/><path class="cls-2" d="M134.25,25a8,8,0,0,0-2.46-1.55,8.31,8.31,0,0,0-6,0A8,8,0,0,0,123.27,25a6.89,6.89,0,0,0-1.65,2.35,6.71,6.71,0,0,0-.61,2.88,6.55,6.55,0,0,0,.61,2.85,7.14,7.14,0,0,0,1.65,2.31,8,8,0,0,0,2.47,1.56,8.45,8.45,0,0,0,6,0,7.7,7.7,0,0,0,2.46-1.56,7.32,7.32,0,0,0,1.66-2.31,7,7,0,0,0,0-5.73A7.06,7.06,0,0,0,134.25,25Zm-1.26,7a4.64,4.64,0,0,1-1,1.41,4.78,4.78,0,0,1-1.48,1,4.58,4.58,0,0,1-3.56,0,4.47,4.47,0,0,1-1.46-1,4.31,4.31,0,0,1-1-1.41,4.09,4.09,0,0,1-.36-1.72,4,4,0,0,1,.36-1.73,5,5,0,0,1,1-1.44,4.87,4.87,0,0,1,1.46-1,4.8,4.8,0,0,1,1.77-.34,4.42,4.42,0,0,1,1.79.37,5,5,0,0,1,1.48,1,4.19,4.19,0,0,1,1,1.44,4.14,4.14,0,0,1,0,3.42Z"/><path class="cls-2" d="M173.52,37.42h3V29.54l7,7.88h4.15L173.52,21.8Z"/><path class="cls-2" d="M187.1,26.15,184,21.74v7.8l3.14,3.64Z"/><path class="cls-2" d="M193.43,22.9l-2.8,2.88H197V37.47h3.11V25.78h2.5l3.69-2.88Z"/><path class="cls-2" d="M83.11,37.61h3V29.76l6,6.7,2.19-2.15L83.11,22Z"/><path class="cls-2" d="M95.38,33l3.05-3.25v7.9h3V22l-8,8.87Z"/></svg>