<svg id="Layer_1" data-name="Layer 1" xmlns="http://www.w3.org/2000/svg" viewBox="0 0 24 24"><path d="M4.9,15.73a6.69,6.69,0,0,1-.7-1.82A8.9,8.9,0,0,1,4,12.05,7.73,7.73,0,0,1,6.36,6.41,7.73,7.73,0,0,1,12,4.05h1.07l-2-2,1-1L15.77,4.8,12.05,8.53l-1-1,2-2H12A6.29,6.29,0,0,0,7.41,7.46,6.29,6.29,0,0,0,5.5,12.05a6.87,6.87,0,0,0,.14,1.38A10.31,10.31,0,0,0,6,14.65Zm7,7.27L8.18,19.28l3.72-3.73,1,1-2,2H12a6.26,6.26,0,0,0,4.59-1.92A6.25,6.25,0,0,0,18.5,12a7.54,7.54,0,0,0-.12-1.38A6,6,0,0,0,18,9.43l1.08-1.08a7,7,0,0,1,.71,1.81A8.31,8.31,0,0,1,20,12a7.69,7.69,0,0,1-2.36,5.63A7.7,7.7,0,0,1,12,20H10.88l2,2Z"/></svg>