<svg width="24" height="24" viewBox="0 0 24 24" fill="none" xmlns="http://www.w3.org/2000/svg">
<path d="M5.42862 12.3751C5.23492 11.4216 5.28035 10.4351 5.56087 9.50345C5.8414 8.57184 6.34827 7.72421 7.03624 7.03625C7.7242 6.34829 8.57184 5.84142 9.50344 5.5609C10.4351 5.28039 11.4216 5.23496 12.3751 5.42867V2.14128C10.9885 1.96148 9.57916 2.10236 8.25561 2.55308C6.93207 3.00379 5.72965 3.75232 4.74098 4.74098C3.75232 5.72965 3.00379 6.93207 2.55308 8.25561C2.10236 9.57916 1.96148 10.9885 2.14128 12.3751H5.42862ZM8.963 4.01C9.09148 3.95312 9.2212 3.89907 9.35206 3.84791C9.39221 3.83212 9.43507 3.82441 9.4782 3.82521C9.52133 3.82602 9.56388 3.83531 9.60341 3.85257C9.64294 3.86984 9.67868 3.89472 9.70859 3.92581C9.73849 3.9569 9.76197 3.99358 9.77769 4.03375C9.7934 4.07392 9.80104 4.1168 9.80017 4.15993C9.79929 4.20306 9.78992 4.24559 9.7726 4.28509C9.75527 4.32459 9.73032 4.36029 9.69918 4.39014C9.66804 4.42 9.63132 4.44342 9.59112 4.45906C9.46928 4.50681 9.34847 4.55717 9.22878 4.61009C9.14944 4.64399 9.05994 4.64527 8.97966 4.61366C8.89938 4.58205 8.83478 4.52009 8.79985 4.4412C8.76492 4.36232 8.76246 4.27284 8.79301 4.19215C8.82357 4.11147 8.88467 4.04606 8.96309 4.01009L8.963 4.01ZM5.8782 6.17666C5.975 6.07555 6.07508 5.97509 6.17623 5.87858C6.20729 5.84847 6.244 5.8248 6.28424 5.80893C6.32448 5.79306 6.36747 5.78531 6.41071 5.78611C6.45396 5.78692 6.49663 5.79626 6.53625 5.81362C6.57588 5.83097 6.61168 5.85599 6.6416 5.88723C6.67151 5.91847 6.69496 5.95532 6.71059 5.99566C6.72621 6.03599 6.73371 6.07902 6.73264 6.12227C6.73157 6.16551 6.72197 6.20812 6.70437 6.24764C6.68678 6.28715 6.66155 6.3228 6.63012 6.35253C6.53595 6.44272 6.44262 6.53623 6.3522 6.6305C6.29189 6.69278 6.20937 6.72866 6.12269 6.7303C6.036 6.73193 5.95219 6.6992 5.88957 6.63923C5.82694 6.57927 5.7906 6.49696 5.78847 6.41029C5.78634 6.32361 5.8186 6.23962 5.8782 6.17666ZM3.84725 9.35361C3.8985 9.2226 3.95261 9.09273 4.00953 8.96408C4.02643 8.92388 4.05118 8.88746 4.08232 8.85694C4.11346 8.82642 4.15037 8.80241 4.19089 8.78631C4.23142 8.77022 4.27474 8.76237 4.31834 8.76321C4.36193 8.76405 4.40492 8.77357 4.4448 8.79122C4.48467 8.80887 4.52063 8.83428 4.55056 8.86599C4.5805 8.89769 4.60382 8.93504 4.61916 8.97586C4.63449 9.01667 4.64154 9.06014 4.63989 9.10371C4.63824 9.14728 4.62792 9.19009 4.60953 9.22962C4.55648 9.34952 4.50606 9.47057 4.45831 9.59267C4.42651 9.67357 4.3639 9.73855 4.28424 9.77333C4.20457 9.80812 4.11436 9.80987 4.0334 9.7782C3.95245 9.74654 3.88737 9.68404 3.85245 9.60443C3.81753 9.52483 3.81563 9.43462 3.84716 9.35361H3.84725ZM11.0715 11.392C11.0284 11.3921 10.9857 11.3836 10.9459 11.3671C10.9061 11.3506 10.8699 11.3264 10.8395 11.2959L9.58606 10.0444C8.97174 10.747 8.60428 11.6315 8.53981 12.5626H10.3164C10.4034 12.5626 10.4869 12.5971 10.5484 12.6587C10.6099 12.7202 10.6445 12.8037 10.6445 12.8907C10.6445 12.9777 10.6099 13.0612 10.5484 13.1227C10.4869 13.1843 10.4034 13.2188 10.3164 13.2188H8.53981C8.61327 14.1466 8.97963 15.0271 9.58602 15.7332L10.8395 14.4788C10.8698 14.4479 10.9059 14.4233 10.9458 14.4064C10.9857 14.3895 11.0285 14.3807 11.0718 14.3805C11.1152 14.3802 11.1581 14.3886 11.1982 14.405C11.2382 14.4215 11.2746 14.4457 11.3053 14.4763C11.3359 14.5069 11.3602 14.5433 11.3767 14.5833C11.3933 14.6234 11.4017 14.6663 11.4015 14.7096C11.4013 14.7529 11.3926 14.7958 11.3758 14.8357C11.359 14.8756 11.3344 14.9118 11.3035 14.9421L10.0488 16.1948C10.7554 16.7989 11.6357 17.163 12.5626 17.2345V15.465C12.5626 15.378 12.5971 15.2945 12.6587 15.233C12.7202 15.1715 12.8037 15.1369 12.8907 15.1369C12.9777 15.1369 13.0612 15.1715 13.1227 15.233C13.1843 15.2945 13.2188 15.378 13.2188 15.465V17.2335C14.1452 17.1591 15.0242 16.793 15.7295 16.1878L14.4845 14.9419C14.4229 14.8803 14.3884 14.7967 14.3884 14.7096C14.3885 14.6225 14.4232 14.539 14.4848 14.4775C14.5464 14.416 14.63 14.3814 14.7171 14.3815C14.8042 14.3816 14.8877 14.4162 14.9492 14.4778L16.1945 15.7247C16.7974 15.0205 17.1614 14.1431 17.234 13.2188H15.4726C15.3856 13.2188 15.3021 13.1843 15.2406 13.1227C15.1791 13.0612 15.1445 12.9777 15.1445 12.8907C15.1445 12.8037 15.1791 12.7202 15.2406 12.6587C15.3021 12.5971 15.3856 12.5626 15.4726 12.5626H17.234C17.1615 11.6371 16.7977 10.7584 16.1947 10.0526L14.9495 11.297C14.8879 11.3585 14.8043 11.393 14.7172 11.3929C14.6301 11.3929 14.5466 11.3582 14.4851 11.2966C14.4235 11.2349 14.389 11.1513 14.3891 11.0642C14.3892 10.9771 14.4238 10.8936 14.4855 10.8321L15.7294 9.58602C15.0242 8.98073 14.1452 8.61463 13.2188 8.54033V10.3088C13.2188 10.3958 13.1843 10.4793 13.1227 10.5408C13.0612 10.6023 12.9777 10.6369 12.8907 10.6369C12.8037 10.6369 12.7202 10.6023 12.6587 10.5408C12.5971 10.4793 12.5626 10.3958 12.5626 10.3088V8.53934C11.6357 8.61091 10.7555 8.97499 10.0488 9.57908L11.3026 10.8319C11.3484 10.8777 11.3797 10.9361 11.3923 10.9996C11.405 11.0632 11.3986 11.1291 11.3739 11.189C11.3492 11.249 11.3073 11.3002 11.2534 11.3363C11.1996 11.3725 11.1363 11.3918 11.0715 11.392ZM12.8869 11.6213C13.1372 11.6213 13.3819 11.6955 13.59 11.8346C13.7982 11.9736 13.9604 12.1713 14.0562 12.4026C14.152 12.6338 14.177 12.8883 14.1282 13.1338C14.0794 13.3793 13.9588 13.6048 13.7818 13.7818C13.6048 13.9588 13.3793 14.0794 13.1338 14.1282C12.8883 14.177 12.6338 14.152 12.4026 14.0562C12.1713 13.9604 11.9736 13.7982 11.8346 13.59C11.6955 13.3819 11.6213 13.1372 11.6213 12.8869C11.6217 12.5514 11.7551 12.2297 11.9924 11.9924C12.2297 11.7551 12.5514 11.6217 12.8869 11.6213Z" fill="#8491A6"/>
<path d="M7.50485 7.50456C6.84812 8.16282 6.37768 8.98347 6.14152 9.88282C5.90535 10.7822 5.91189 11.7281 6.16048 12.6241C6.17403 12.6721 6.17612 12.7226 6.16658 12.7715C6.15705 12.8205 6.13616 12.8666 6.10559 12.906C6.07476 12.9457 6.03511 12.9776 5.98979 12.9994C5.94446 13.0211 5.8947 13.032 5.84445 13.0311H3.84204C3.9244 17.953 7.94984 21.929 12.887 21.929C17.8755 21.929 21.9292 17.8729 21.9292 12.8844C21.9293 7.9473 17.9533 3.92411 13.0314 3.8418V5.84416C13.0325 5.89443 13.0217 5.94424 13 5.9896C12.9783 6.03496 12.9463 6.0746 12.9065 6.10534C12.8667 6.13608 12.8202 6.15706 12.7709 6.1666C12.7215 6.17615 12.6706 6.17398 12.6222 6.16028C11.7265 5.91166 10.781 5.90509 9.88196 6.14125C8.98295 6.37742 8.16268 6.84785 7.50485 7.50456ZM12.8869 7.87098H12.897C14.2001 7.87276 15.451 8.38338 16.3831 9.29402C16.4255 9.32019 16.4611 9.35589 16.4872 9.39827C17.3778 10.314 17.8839 11.536 17.9017 12.8133C17.9131 12.8616 17.9131 12.9118 17.9017 12.9601C17.8839 14.2373 17.3778 15.4592 16.4873 16.3749C16.4612 16.4172 16.4256 16.4529 16.3834 16.4791C15.4512 17.3898 14.2003 17.9004 12.8972 17.9022H12.887C11.5568 17.9022 10.2811 17.3738 9.34046 16.4331C8.39985 15.4925 7.87142 14.2168 7.87142 12.8866C7.87142 11.5563 8.39985 10.2806 9.34046 9.33998C10.2811 8.39937 11.5568 7.87094 12.887 7.87094L12.8869 7.87098Z" fill="#8491A6"/>
<path d="M12.887 13.4961C13.2235 13.4961 13.4963 13.2233 13.4963 12.8867C13.4963 12.5502 13.2235 12.2773 12.887 12.2773C12.5504 12.2773 12.2776 12.5502 12.2776 12.8867C12.2776 13.2233 12.5504 13.4961 12.887 13.4961Z" fill="#8491A6"/>
</svg>
