<svg id="Layer_1" data-name="Layer 1" xmlns="http://www.w3.org/2000/svg" viewBox="0 0 24 24"><defs><style>.cls-1{fill:#268ae5;}.cls-2{fill:#fff;}</style></defs><path class="cls-1" d="M0,11.52C0,6.09,0,3.37,1.69,1.69S6.09,0,11.52,0h1c5.43,0,8.15,0,9.83,1.69S24,6.09,24,11.52v1c0,5.43,0,8.15-1.69,9.83S17.91,24,12.48,24h-1c-5.43,0-8.15,0-9.83-1.69S0,17.91,0,12.48Z"/><path class="cls-2" d="M12.77,17.29c-5.47,0-8.59-3.75-8.72-10H6.79c.09,4.58,2.11,6.52,3.71,6.92V7.3h2.58v4c1.58-.17,3.24-2,3.8-3.95h2.58a7.62,7.62,0,0,1-3.51,5,7.89,7.89,0,0,1,4.11,5H17.22a4.94,4.94,0,0,0-4.14-3.57v3.57Z"/></svg>