<svg width="32" height="32" viewBox="0 0 32 32" fill="none" xmlns="http://www.w3.org/2000/svg">
<path d="M14.0338 22.067L23.4672 12.6337L21.9338 11.1337L14.0338 19.0337L10.0338 15.0337L8.53384 16.5337L14.0338 22.067ZM16.0005 29.3337C14.1783 29.3337 12.4561 28.9837 10.8338 28.2837C9.21162 27.5837 7.79495 26.6281 6.58384 25.417C5.37273 24.2059 4.41717 22.7892 3.71718 21.167C3.01718 19.5448 2.66718 17.8225 2.66718 16.0003C2.66718 14.1559 3.01718 12.4225 3.71718 10.8003C4.41717 9.1781 5.37273 7.76699 6.58384 6.56699C7.79495 5.36699 9.21162 4.41699 10.8338 3.71699C12.4561 3.01699 14.1783 2.66699 16.0005 2.66699C17.845 2.66699 19.5783 3.01699 21.2005 3.71699C22.8227 4.41699 24.2338 5.36699 25.4338 6.56699C26.6338 7.76699 27.5838 9.1781 28.2838 10.8003C28.9838 12.4225 29.3338 14.1559 29.3338 16.0003C29.3338 17.8225 28.9838 19.5448 28.2838 21.167C27.5838 22.7892 26.6338 24.2059 25.4338 25.417C24.2338 26.6281 22.8227 27.5837 21.2005 28.2837C19.5783 28.9837 17.845 29.3337 16.0005 29.3337Z" fill="#4CD04A"/>
</svg>
