<svg width="1070" height="95" viewBox="0 0 1070 95" fill="none" xmlns="http://www.w3.org/2000/svg">
<line x1="103" y1="47.5" x2="317" y2="47.5" stroke="#8491A6" stroke-dasharray="2 4"/>
<line x1="428" y1="47.5" x2="642" y2="47.5" stroke="#8491A6" stroke-dasharray="2 4"/>
<line x1="753" y1="47.5" x2="967" y2="47.5" stroke="#8491A6" stroke-dasharray="2 4"/>
<circle opacity="0.7" cx="372.5" cy="47.5" r="47.5" fill="#F1F4F8"/>
<path d="M355.334 42.584L357.084 42.584L359.584 45.9173L370.042 45.9173L365.75 31.334L368.167 31.334L376.75 45.9173L386.584 45.9173C387.167 45.9173 387.66 46.1187 388.063 46.5215C388.466 46.9243 388.667 47.4173 388.667 48.0007C388.667 48.584 388.466 49.077 388.063 49.4798C387.66 49.8826 387.167 50.084 386.584 50.084L376.75 50.084L368.167 64.6673L365.75 64.6673L370.042 50.084L359.584 50.084L357.084 53.4173L355.334 53.4173L356.875 48.0006L355.334 42.584Z" fill="#268AE5"/>
<circle opacity="0.7" cx="1022.5" cy="47.5" r="47.5" fill="#F1F4F8"/>
<path d="M1011.33 61.293C1009.97 61.293 1008.81 60.8138 1007.85 59.8555C1006.9 58.8971 1006.42 57.7374 1006.42 56.3763H1003.67V37.168C1003.67 36.5013 1003.92 35.918 1004.42 35.418C1004.92 34.918 1005.5 34.668 1006.17 34.668H1030.29V41.6263H1034.67L1040.33 49.168V56.3763H1037.38C1037.38 57.7374 1036.9 58.8971 1035.94 59.8555C1034.98 60.8138 1033.82 61.293 1032.46 61.293C1031.1 61.293 1029.94 60.8138 1028.98 59.8555C1028.02 58.8971 1027.54 57.7374 1027.54 56.3763H1016.25C1016.25 57.7374 1015.77 58.8971 1014.81 59.8555C1013.85 60.8138 1012.69 61.293 1011.33 61.293ZM1011.33 58.793C1012 58.793 1012.57 58.5569 1013.04 58.0846C1013.51 57.6124 1013.75 57.043 1013.75 56.3763C1013.75 55.7096 1013.51 55.1402 1013.04 54.668C1012.57 54.1957 1012 53.9596 1011.33 53.9596C1010.67 53.9596 1010.1 54.1957 1009.63 54.668C1009.15 55.1402 1008.92 55.7096 1008.92 56.3763C1008.92 57.043 1009.15 57.6124 1009.63 58.0846C1010.1 58.5569 1010.67 58.793 1011.33 58.793ZM1032.46 58.793C1033.13 58.793 1033.69 58.5569 1034.17 58.0846C1034.64 57.6124 1034.88 57.043 1034.88 56.3763C1034.88 55.7096 1034.64 55.1402 1034.17 54.668C1033.69 54.1957 1033.13 53.9596 1032.46 53.9596C1031.79 53.9596 1031.22 54.1957 1030.75 54.668C1030.28 55.1402 1030.04 55.7096 1030.04 56.3763C1030.04 57.043 1030.28 57.6124 1030.75 58.0846C1031.22 58.5569 1031.79 58.793 1032.46 58.793ZM1030.29 50.293H1038.04L1033.42 44.1263H1030.29V50.293Z" fill="#268AE5"/>
<circle opacity="0.7" cx="47.5" cy="47.5" r="47.5" fill="#F1F4F8"/>
<path d="M33.4997 59.668L30.4163 48.9596C30.3052 48.6263 30.3261 48.2999 30.4788 47.9805C30.6316 47.661 30.8747 47.4457 31.208 47.3346L33.6663 46.5013V37.168C33.6663 36.4735 33.9094 35.8902 34.3955 35.418C34.8816 34.9457 35.4719 34.6957 36.1663 34.668H42.4163V29.668H51.583V34.668H57.833C58.5275 34.668 59.1177 34.911 59.6038 35.3971C60.09 35.8832 60.333 36.4735 60.333 37.168V46.543L62.833 47.3346C63.1386 47.4457 63.3677 47.6541 63.5205 47.9596C63.6733 48.2652 63.6941 48.5846 63.583 48.918L60.4997 59.668C59.1663 59.5291 57.9233 59.1263 56.7705 58.4596C55.6177 57.793 54.5969 57.0013 53.708 56.0846C52.8191 57.0846 51.8122 57.9319 50.6872 58.6263C49.5622 59.3207 48.333 59.668 46.9997 59.668C45.6663 59.668 44.4372 59.3207 43.3122 58.6263C42.1872 57.9319 41.1802 57.0846 40.2913 56.0846C39.4025 57.0013 38.3816 57.793 37.2288 58.4596C36.0761 59.1263 34.833 59.5291 33.4997 59.668ZM30.333 66.3346V63.8346H33.6663C34.833 63.8346 35.9858 63.6541 37.1247 63.293C38.2636 62.9319 39.333 62.418 40.333 61.7513C41.333 62.418 42.4025 62.918 43.5413 63.2513C44.6802 63.5846 45.833 63.7513 46.9997 63.7513C48.1663 63.7513 49.3191 63.5846 50.458 63.2513C51.5969 62.918 52.6663 62.418 53.6663 61.7513C54.6663 62.418 55.7358 62.9319 56.8747 63.293C58.0136 63.6541 59.1663 63.8346 60.333 63.8346H63.6663V66.3346H60.333C59.1941 66.3346 58.0691 66.1888 56.958 65.8971C55.8469 65.6055 54.7497 65.1819 53.6663 64.6263C52.583 65.1819 51.4719 65.6055 50.333 65.8971C49.1941 66.1888 48.083 66.3346 46.9997 66.3346C45.9163 66.3346 44.8052 66.1888 43.6663 65.8971C42.5275 65.6055 41.4163 65.1819 40.333 64.6263C39.2497 65.1819 38.1525 65.6055 37.0413 65.8971C35.9302 66.1888 34.8052 66.3346 33.6663 66.3346H30.333ZM36.1663 45.7096L46.9997 42.2096L57.833 45.7513V37.168H36.1663V45.7096Z" fill="#268AE5"/>
<circle opacity="0.7" cx="697.5" cy="47.5" r="47.5" fill="#F1F4F8"/>
<path d="M683.667 53.832V37.9987C683.667 36.8598 683.931 35.8668 684.459 35.0195C684.986 34.1723 685.799 33.4779 686.896 32.9362C687.993 32.3945 689.382 31.9918 691.063 31.7279C692.743 31.464 694.723 31.332 697 31.332C699.389 31.332 701.424 31.457 703.104 31.707C704.785 31.957 706.16 32.3529 707.229 32.8945C708.299 33.4362 709.084 34.1237 709.584 34.957C710.084 35.7904 710.334 36.8043 710.334 37.9987V53.832C710.334 55.4709 709.771 56.8529 708.646 57.9779C707.521 59.1029 706.139 59.6654 704.5 59.6654L707 62.1654V62.9987H704.084L700.75 59.6654H693.25L689.917 62.9987H687V62.1654L689.5 59.6654C687.861 59.6654 686.479 59.1029 685.354 57.9779C684.229 56.8529 683.667 55.4709 683.667 53.832ZM686.167 45.2904H695.917V38.832H686.167V45.2904ZM698.417 45.2904H707.834V38.832H698.417V45.2904ZM690.959 54.8737C691.598 54.8737 692.139 54.6515 692.584 54.207C693.028 53.7626 693.25 53.2209 693.25 52.582C693.25 51.9431 693.028 51.4015 692.584 50.957C692.139 50.5126 691.598 50.2904 690.959 50.2904C690.32 50.2904 689.778 50.5126 689.334 50.957C688.889 51.4015 688.667 51.9431 688.667 52.582C688.667 53.2209 688.889 53.7626 689.334 54.207C689.778 54.6515 690.32 54.8737 690.959 54.8737ZM703.042 54.8737C703.681 54.8737 704.223 54.6515 704.667 54.207C705.111 53.7626 705.334 53.2209 705.334 52.582C705.334 51.9431 705.111 51.4015 704.667 50.957C704.223 50.5126 703.681 50.2904 703.042 50.2904C702.403 50.2904 701.861 50.5126 701.417 50.957C700.973 51.4015 700.75 51.9431 700.75 52.582C700.75 53.2209 700.973 53.7626 701.417 54.207C701.861 54.6515 702.403 54.8737 703.042 54.8737Z" fill="#268AE5"/>
<circle cx="209" cy="48" r="10" fill="#268AE5"/>
<circle cx="209" cy="48" r="4" fill="white"/>
<circle cx="546" cy="48" r="10" fill="#268AE5"/>
<circle cx="546" cy="48" r="4" fill="white"/>
<circle cx="871" cy="48" r="10" fill="#268AE5"/>
<circle cx="871" cy="48" r="4" fill="white"/>
</svg>
