<svg xmlns="http://www.w3.org/2000/svg" width="200" height="200" viewBox="0 0 200 200" fill="none">
    <path
        d="M42.0483 62.1653L98.5498 35.4899H82.5866L58.4316 14.9058C57.3814 13.8557 55.9112 13.4355 54.4406 13.4355H14.7425C11.1716 13.4355 8.44141 16.1662 8.44141 19.7366V62.1653H42.0483ZM174.375 62.1653H191.599V41.791C191.599 38.2202 188.868 35.4899 185.298 35.4899H161.773L174.375 62.1653Z"
        fill="#BCC3CE" />
    <path d="M154.001 16.3762C152.321 12.8053 147.91 11.1252 144.129 13.0156L37.4277 63.4259H176.056L154.001 16.3762Z"
        fill="#F9FAFC" />
    <path
        d="M198.32 63.0076C197.059 61.7472 195.379 61.1172 193.699 61.1172H6.34123C4.66073 61.1172 2.98063 61.7472 1.72025 63.0076C0.459874 64.2679 -0.170113 65.948 0.0397486 67.6285L6.34083 181.892C6.55069 185.252 9.28131 187.773 12.6419 187.773H187.397C190.758 187.773 193.489 185.253 193.698 181.892L200 67.6285C200 65.948 199.37 64.2675 198.32 63.0076Z"
        fill="#D2D7DE" />
</svg>