<svg width="214" height="50" viewBox="0 0 214 50" fill="none" xmlns="http://www.w3.org/2000/svg">
<g opacity="0.2">
<path d="M23.6949 23.7422L18.0322 33.6322H29.3777L23.6949 23.7422Z" fill="#16253E"/>
<path d="M18.5392 14.7109L2.5625 42.6273H7.59819L21.0672 19.0952L18.5392 14.7109Z" fill="#16253E"/>
<path d="M39.6924 33.6329L23.6955 5.67578L21.208 10.1008L34.677 33.6329H39.6924Z" fill="#16253E"/>
<path d="M42.363 38.2422H15.4049L12.877 42.6264H44.8506L42.363 38.2422Z" fill="#16253E"/>
<path d="M50.0811 21.0376H53.5258L58.2309 12.4529L60.0513 15.7851H57.7268L56.1584 18.6372H61.6196L62.9079 21.0376H66.3807L58.2309 5.92969L50.0811 21.0376Z" fill="#16253E"/>
<path d="M118.416 10.8719C118.024 9.96827 117.463 9.20582 116.735 8.52808C116.035 7.87859 115.195 7.34204 114.271 6.97494C113.318 6.60783 112.31 6.41016 111.246 6.41016C110.182 6.41016 109.174 6.60783 108.221 6.97494C107.297 7.34204 106.457 7.87859 105.757 8.52808C105.057 9.17758 104.497 9.96827 104.104 10.8719C103.684 11.7756 103.488 12.7357 103.488 13.7523C103.488 14.7689 103.684 15.729 104.104 16.6044C104.497 17.4799 105.057 18.2705 105.757 18.92C106.457 19.5695 107.297 20.1061 108.221 20.4732C109.146 20.8403 110.182 21.038 111.246 21.038C112.31 21.038 113.346 20.8403 114.271 20.4732C115.223 20.1061 116.035 19.5695 116.735 18.92C117.435 18.2705 117.996 17.4799 118.388 16.6044C118.808 15.7008 119.004 14.7407 119.004 13.7523C119.032 12.7357 118.808 11.7756 118.416 10.8719ZM115.839 13.7523C115.839 14.3736 115.727 14.9383 115.475 15.4749C115.223 16.0114 114.915 16.4915 114.495 16.8868C114.075 17.2822 113.571 17.621 113.01 17.847C111.89 18.327 110.546 18.327 109.454 17.847C108.893 17.621 108.417 17.2822 107.997 16.8868C107.577 16.4915 107.241 16.0114 107.017 15.4749C106.765 14.9383 106.653 14.3453 106.653 13.7523C106.653 13.131 106.765 12.5663 107.017 12.0297C107.269 11.4932 107.577 10.9849 107.997 10.5895C108.417 10.1942 108.893 9.85532 109.454 9.6294C110.014 9.40349 110.602 9.29054 111.218 9.29054C111.834 9.29054 112.45 9.40349 113.01 9.65764C113.571 9.88356 114.075 10.2224 114.495 10.6178C114.915 11.0131 115.251 11.4932 115.475 12.058C115.727 12.5663 115.839 13.1593 115.839 13.7523Z" fill="#16253E"/>
<path d="M86.7393 9.32089H93.1527V21.0401H96.2614V9.32089H98.7259L102.423 6.46875H89.5679L86.7393 9.32089Z" fill="#16253E"/>
<path d="M79.0677 16.0395C79.0677 16.3219 79.0117 16.6043 78.8996 16.8584C78.7876 17.1126 78.5916 17.3385 78.3955 17.5362C78.1715 17.7338 77.9194 17.9033 77.6114 18.0162C77.0232 18.2421 76.2951 18.2421 75.6789 18.0162C75.3709 17.9033 75.1188 17.7338 74.9228 17.5362C74.6987 17.3385 74.5307 17.1126 74.4186 16.8302C74.3066 16.576 74.2506 16.3219 74.2506 16.0113V5.67578L71.1699 9.17742V16.0395C71.1699 16.7455 71.31 17.395 71.618 18.0162C71.8981 18.6092 72.2902 19.1458 72.7943 19.5976C73.2984 20.0494 73.8865 20.3883 74.5307 20.6425C75.2028 20.8966 75.903 21.0378 76.6591 21.0378C77.4153 21.0378 78.1435 20.8966 78.8156 20.6425C79.4878 20.3883 80.0759 20.0494 80.58 19.5976C81.0841 19.1458 81.5042 18.6375 81.7843 18.0162C82.0923 17.395 82.2324 16.7455 82.2324 16.0395V5.67578L79.1517 9.17742V16.0395H79.0677Z" fill="#16253E"/>
<path d="M54.5038 32.7284C54.9239 32.333 55.4 31.9941 55.9601 31.7682C56.4922 31.5423 57.1083 31.4294 57.7245 31.4294C58.5087 31.4294 59.2088 31.5988 59.853 31.9377C60.4971 32.2765 61.0292 32.7566 61.4493 33.3214L61.7294 33.6885L64.2499 31.9377L63.9419 31.5423C63.2417 30.6387 62.3455 29.9327 61.2813 29.3962C60.217 28.8596 59.0128 28.6055 57.7525 28.6055C56.6883 28.6055 55.68 28.8031 54.7558 29.1702C53.8316 29.5374 52.9914 30.0739 52.3193 30.7234C51.6191 31.3729 51.059 32.1636 50.6669 33.039C50.2468 33.9144 50.0508 34.8745 50.0508 35.8911C50.0508 36.9077 50.2468 37.8679 50.6669 38.7433C51.059 39.6187 51.6191 40.4094 52.3193 41.0589C53.0194 41.7084 53.8316 42.2449 54.7558 42.612C55.68 42.9791 56.6883 43.1768 57.7525 43.1768C59.0408 43.1768 60.217 42.9226 61.2813 42.3861C62.3455 41.8496 63.2417 41.1436 63.9419 40.2399L64.2499 39.8446L61.7294 38.0938L61.4493 38.4609C61.0292 39.0257 60.4971 39.5057 59.853 39.8446C59.2088 40.1835 58.5087 40.3529 57.7245 40.3529C57.1083 40.3529 56.4922 40.2399 55.9601 40.014C55.4 39.7881 54.9239 39.4492 54.5038 39.0539C54.0837 38.6586 53.7756 38.1785 53.5236 37.642C53.2995 37.1054 53.1595 36.5406 53.1595 35.9194C53.1595 35.2981 53.2715 34.7333 53.5236 34.1968C53.7756 33.6038 54.0837 33.1237 54.5038 32.7284Z" fill="#16253E"/>
<path d="M170.422 37.0781L173.139 34.2259H164.177L164.037 34.3389V31.4585H170.422L173.139 28.6064H164.177L164.037 28.7193V28.5781H161.04V43.093H161.096L161.04 43.1212H170.422L173.139 40.2691H164.177L164.037 40.382V37.0781H170.422Z" fill="#16253E"/>
<path d="M157.092 32.0255L153.955 27.6484V35.4142L157.092 39.057V32.0255Z" fill="#16253E"/>
<path d="M143.48 43.2911H146.505V35.4406L153.535 43.2911H157.68L143.48 27.7031V43.2911Z" fill="#16253E"/>
<path d="M119.619 33.3193V33.2346C119.619 33.1781 119.591 33.1498 119.591 33.0934C119.591 33.0086 119.563 32.9239 119.563 32.8392L119.535 32.6698C119.507 32.5568 119.479 32.4439 119.423 32.3309C119.227 31.7096 118.891 31.1731 118.499 30.6648C118.079 30.1847 117.602 29.7612 117.014 29.4223C116.006 28.8575 114.858 28.5469 113.542 28.5469H107.492L110.293 31.2578H113.822C114.214 31.2578 114.55 31.3425 114.858 31.4837C115.166 31.6249 115.474 31.8226 115.698 32.0768C115.922 32.3309 116.118 32.5851 116.258 32.8957C116.398 33.2063 116.454 33.5169 116.454 33.8558C116.454 34.1947 116.398 34.5053 116.258 34.8159C116.118 35.1266 115.95 35.409 115.698 35.6349C115.474 35.889 115.166 36.0867 114.858 36.2279C114.55 36.3691 114.186 36.4538 113.822 36.4538H111.329V33.0369L108.164 36.6797V43.1747H111.301V39.1365H113.514C114.158 39.1365 114.802 39.0518 115.362 38.9106C115.95 38.7694 116.482 38.5435 116.986 38.2893C117.574 37.9505 118.051 37.5269 118.471 37.0468C118.891 36.5668 119.199 36.002 119.395 35.409C119.423 35.3242 119.451 35.2395 119.479 35.183C119.479 35.1548 119.507 35.0983 119.507 35.0701L119.619 34.4206C119.647 34.3359 119.647 34.2512 119.647 34.1664C119.647 34.0817 119.647 33.997 119.647 33.8558C119.647 33.7429 119.647 33.6581 119.647 33.5734C119.647 33.4605 119.647 33.404 119.619 33.3193Z" fill="#16253E"/>
<path d="M80.3544 30.6648C79.6542 30.0153 78.814 29.4788 77.8898 29.1117C76.9376 28.7445 75.9294 28.5469 74.8651 28.5469C73.8009 28.5469 72.7927 28.7445 71.8405 29.1117C70.9163 29.4788 70.0761 30.0153 69.3759 30.6648C68.6758 31.3143 68.1156 32.105 67.7236 33.0086C67.3035 33.9123 67.1074 34.8724 67.1074 35.889C67.1074 36.9056 67.3035 37.8657 67.7236 38.7412C68.1156 39.6166 68.6758 40.4073 69.3759 41.0568C70.0761 41.7063 70.9163 42.2428 71.8405 42.6099C72.7647 42.977 73.8009 43.1747 74.8651 43.1747C75.9294 43.1747 76.9656 42.977 77.8898 42.6099C78.842 42.2428 79.6542 41.7063 80.3544 41.0568C81.0545 40.4073 81.6147 39.6166 82.0067 38.7412C82.4268 37.8375 82.6229 36.8774 82.6229 35.889C82.6229 34.8724 82.4268 33.9123 82.0067 33.0086C81.6147 32.105 81.0545 31.3143 80.3544 30.6648ZM79.0941 37.6116C78.842 38.1481 78.534 38.6282 78.1139 39.0235C77.6938 39.4189 77.1897 39.7578 76.6295 39.9837C75.5093 40.4637 74.165 40.4637 73.0728 39.9837C72.5126 39.7578 72.0085 39.4189 71.6164 39.0235C71.1963 38.6282 70.8603 38.1481 70.6362 37.6116C70.3842 37.0751 70.2721 36.482 70.2721 35.889C70.2721 35.2678 70.3842 34.703 70.6362 34.1664C70.8883 33.6299 71.1963 33.1216 71.6164 32.7263C72.0365 32.3309 72.5126 31.992 73.0728 31.7661C73.6329 31.5402 74.221 31.4273 74.8371 31.4273C75.4533 31.4273 76.0694 31.5402 76.6295 31.7944C77.1897 32.0203 77.6938 32.3591 78.1139 32.7545C78.534 33.1498 78.87 33.6581 79.0941 34.1947C79.3461 34.7312 79.4582 35.3242 79.4582 35.9173C79.4302 36.482 79.3181 37.0751 79.0941 37.6116Z" fill="#16253E"/>
<path d="M136.815 30.6648C136.115 30.0153 135.275 29.4788 134.351 29.1117C133.399 28.7445 132.39 28.5469 131.326 28.5469C130.262 28.5469 129.254 28.7445 128.301 29.1117C127.377 29.4788 126.537 30.0153 125.837 30.6648C125.137 31.3143 124.577 32.105 124.184 33.0086C123.764 33.9123 123.568 34.8724 123.568 35.889C123.568 36.9056 123.764 37.8657 124.184 38.7412C124.577 39.6166 125.137 40.4073 125.837 41.0568C126.537 41.7063 127.377 42.2428 128.301 42.6099C129.226 42.977 130.262 43.1747 131.326 43.1747C132.39 43.1747 133.427 42.977 134.351 42.6099C135.303 42.2428 136.115 41.7063 136.815 41.0568C137.515 40.4073 138.076 39.6166 138.468 38.7412C138.888 37.8375 139.084 36.8774 139.084 35.889C139.084 34.8724 138.888 33.9123 138.468 33.0086C138.076 32.105 137.515 31.3143 136.815 30.6648ZM135.555 37.6116C135.303 38.1481 134.995 38.6282 134.575 39.0235C134.155 39.4189 133.651 39.7578 133.09 39.9837C131.97 40.4637 130.626 40.4637 129.534 39.9837C128.974 39.7578 128.469 39.4189 128.077 39.0235C127.657 38.6282 127.321 38.1481 127.097 37.6116C126.845 37.0751 126.733 36.482 126.733 35.889C126.733 35.2678 126.845 34.703 127.097 34.1664C127.349 33.6299 127.657 33.1216 128.077 32.7263C128.497 32.3309 128.974 31.992 129.534 31.7661C130.094 31.5402 130.682 31.4273 131.298 31.4273C131.914 31.4273 132.53 31.5402 133.09 31.7944C133.651 32.0203 134.155 32.3591 134.575 32.7545C134.995 33.1498 135.331 33.6581 135.555 34.1947C135.807 34.7312 135.919 35.3242 135.919 35.9173C135.919 36.482 135.807 37.0751 135.555 37.6116Z" fill="#16253E"/>
<path d="M176.08 43.0927H179.077V35.2141L186.106 43.0927H190.251L176.08 27.4766V43.0927Z" fill="#16253E"/>
<path d="M189.663 31.8233L186.526 27.418V35.2119L189.663 38.8548V31.8233Z" fill="#16253E"/>
<path d="M195.992 28.5781L193.191 31.4585H199.577V43.1495H202.686V31.4585H205.178L208.875 28.5781H195.992Z" fill="#16253E"/>
<path d="M85.6758 43.2911H88.6724V35.4406L94.6658 42.1333L96.8503 39.9871L85.6758 27.7031V43.2911Z" fill="#16253E"/>
<path d="M97.9415 38.6286L100.994 35.3811V43.2881H104.019V27.6719L96.0371 36.5389L97.9415 38.6286Z" fill="#16253E"/>
</g>
</svg>
