<svg width="32" height="32" viewBox="0 0 32 32" fill="none" xmlns="http://www.w3.org/2000/svg">
<path d="M16.0003 22.668C16.3114 22.668 16.5725 22.5624 16.7837 22.3513C16.9948 22.1402 17.1003 21.8791 17.1003 21.568C17.1003 21.2569 16.9948 20.9957 16.7837 20.7846C16.5725 20.5735 16.3114 20.468 16.0003 20.468C15.6892 20.468 15.4281 20.5735 15.217 20.7846C15.0059 20.9957 14.9003 21.2569 14.9003 21.568C14.9003 21.8791 15.0059 22.1402 15.217 22.3513C15.4281 22.5624 15.6892 22.668 16.0003 22.668ZM15.1003 17.568H17.1003V9.13463H15.1003V17.568ZM16.0003 29.3346C14.1781 29.3346 12.4559 28.9846 10.8337 28.2846C9.21144 27.5846 7.79477 26.6291 6.58366 25.418C5.37255 24.2069 4.41699 22.7902 3.71699 21.168C3.01699 19.5457 2.66699 17.8124 2.66699 15.968C2.66699 14.1457 3.01699 12.4235 3.71699 10.8013C4.41699 9.17908 5.37255 7.76797 6.58366 6.56797C7.79477 5.36797 9.21144 4.41797 10.8337 3.71797C12.4559 3.01797 14.1892 2.66797 16.0337 2.66797C17.8559 2.66797 19.5781 3.01797 21.2003 3.71797C22.8225 4.41797 24.2337 5.36797 25.4337 6.56797C26.6337 7.76797 27.5837 9.17908 28.2837 10.8013C28.9837 12.4235 29.3337 14.1569 29.3337 16.0013C29.3337 17.8235 28.9837 19.5457 28.2837 21.168C27.5837 22.7902 26.6337 24.2069 25.4337 25.418C24.2337 26.6291 22.8225 27.5846 21.2003 28.2846C19.5781 28.9846 17.8448 29.3346 16.0003 29.3346Z" fill="#F9A82F"/>
</svg>
