<svg width="24" height="24" viewBox="0 0 24 24" fill="none" xmlns="http://www.w3.org/2000/svg">
<path d="M6.18754 18.9988V17.5777H4.40629V18.9988C4.40629 19.0859 4.45832 19.1714 4.54541 19.1714H6.02127C6.06546 19.1684 6.10694 19.1491 6.13767 19.1172C6.16839 19.0853 6.18617 19.0431 6.18754 18.9988ZM13.3905 12.3277H10.1901C9.7993 12.3277 9.34968 12.658 9.22795 13.0299L9.06098 13.5464H13.3907C13.4448 13.551 13.4977 13.5648 13.5471 13.5873V12.3179C13.4959 12.3306 13.4429 12.3339 13.3905 12.3277ZM4.57602 8.30549C4.13573 8.3047 3.53596 8.30371 3.16509 8.30371C2.67088 8.30371 2.26466 8.52609 2.15432 8.85684C2.11694 8.96996 2.0866 9.08529 2.06348 9.20216L4.07127 9.19959L4.57602 8.30549Z" fill="#8491A6"/>
<path d="M5.38634 14.1731C5.76152 14.1731 6.06566 13.8689 6.06566 13.4938C6.06566 13.1186 5.76152 12.8145 5.38634 12.8145C5.01117 12.8145 4.70703 13.1186 4.70703 13.4938C4.70703 13.8689 5.01117 14.1731 5.38634 14.1731Z" fill="#8491A6"/>
<path d="M18.3703 11.9997C18.3703 9.6307 16.5 7.67991 14.2031 7.50586V16.4935C16.4998 16.3194 18.3703 14.3686 18.3703 11.9997Z" fill="#8491A6"/>
<path d="M14.9354 18.6055C14.9419 18.5358 14.9704 18.4699 15.0166 18.4173C15.0628 18.3647 15.1244 18.328 15.1927 18.3125C15.9595 18.1414 16.689 17.833 17.3459 17.4021C17.4044 17.3641 17.4735 17.3458 17.5431 17.3498C17.6127 17.3537 17.6793 17.3798 17.7331 17.4241L18.9219 18.4081L20.2508 17.0789L19.2664 15.89C19.2214 15.8357 19.1951 15.7682 19.1914 15.6977C19.1878 15.6272 19.2069 15.5574 19.2461 15.4987C19.6786 14.8446 19.9859 14.1157 20.1521 13.3493C20.1668 13.2814 20.2028 13.2198 20.2548 13.1736C20.3067 13.1274 20.372 13.0989 20.4413 13.0922L21.9846 12.9435V11.0565L20.4412 10.9078C20.372 10.9011 20.3067 10.8726 20.2547 10.8264C20.2027 10.7802 20.1668 10.7187 20.1521 10.6508C19.9811 9.88409 19.6733 9.15455 19.2433 8.49717C19.2056 8.43857 19.1874 8.36947 19.1916 8.29988C19.1957 8.23029 19.2219 8.16382 19.2664 8.11013L20.2508 6.92138L18.9219 5.59219L17.7331 6.57656C17.6787 6.62159 17.6113 6.64788 17.5408 6.65152C17.4702 6.65516 17.4004 6.63596 17.3417 6.59677C16.6879 6.16389 15.9591 5.8567 15.1927 5.69095C15.1242 5.67463 15.0625 5.63722 15.0163 5.58401C14.9702 5.53079 14.9418 5.46443 14.9354 5.39428L14.7867 3.84375H14.2034V6.84844C16.8753 7.0238 19.0268 9.26925 19.0268 12C19.0268 14.7308 16.8753 16.9761 14.2034 17.1516V20.1562H14.7867L14.9354 18.6055ZM13.5471 9.54375V4.69753C13.4975 4.71877 13.4446 4.73123 13.3907 4.73438H8.47723C7.37473 4.73438 6.67784 5.82792 6.36059 6.48197C6.35759 6.48811 6.35445 6.49294 6.35121 6.49884L4.64773 9.51562H13.3907C13.4441 9.51572 13.4971 9.52524 13.5471 9.54375ZM4.0857 10.1719C4.06591 10.1715 4.04621 10.1692 4.02682 10.1653C3.37563 10.2023 2.72482 10.7805 2.71582 11.729L3.28376 16.2155C3.2855 16.2327 3.28638 16.25 3.28638 16.2673C3.28617 16.4391 3.3536 16.6042 3.47411 16.7266C3.59461 16.8491 3.75849 16.9193 3.9303 16.9219H13.5471V15.4291C13.4977 15.4512 13.4447 15.4646 13.3907 15.4688H7.66305C7.57603 15.4688 7.49257 15.4342 7.43104 15.3726C7.3695 15.3111 7.33493 15.2276 7.33493 15.1406C7.33493 15.0536 7.3695 14.9701 7.43104 14.9086C7.49257 14.8471 7.57603 14.8125 7.66305 14.8125H13.3907C13.4436 14.8095 13.4966 14.8161 13.5471 14.8318V14.1849C13.4965 14.2002 13.4435 14.2063 13.3907 14.203H8.60871C8.5573 14.2043 8.50633 14.1932 8.46012 14.1706C8.41391 14.1481 8.37381 14.1147 8.34321 14.0734C8.31262 14.032 8.29243 13.9839 8.28435 13.9331C8.27627 13.8824 8.28054 13.8304 8.2968 13.7816L8.60445 12.8305C8.81538 12.1853 9.51218 11.6717 10.1904 11.6717H13.3907C13.4452 11.6793 13.4981 11.696 13.5471 11.721V10.1414C13.4972 10.1607 13.4442 10.1711 13.3907 10.1721L4.0857 10.1719ZM5.3862 14.8295C5.12204 14.8295 4.86381 14.7511 4.64417 14.6044C4.42453 14.4576 4.25334 14.249 4.15225 14.005C4.05116 13.7609 4.02471 13.4924 4.07625 13.2333C4.12778 12.9742 4.25499 12.7362 4.44178 12.5494C4.62857 12.3627 4.86655 12.2354 5.12563 12.1839C5.38471 12.1324 5.65326 12.1588 5.89731 12.2599C6.14136 12.361 6.34996 12.5322 6.49671 12.7518C6.64347 12.9715 6.72181 13.2297 6.72181 13.4939C6.72141 13.848 6.58056 14.1874 6.33018 14.4378C6.07979 14.6882 5.7403 14.8291 5.3862 14.8295Z" fill="#8491A6"/>
</svg>
