<svg xmlns="http://www.w3.org/2000/svg" viewBox="0 0 32 32">
    <path
        d="M15.5,11.57V7.47H11.37v-2H15.5V1.37h2v4.1h4.1v2H17.5v4.1ZM9.67,29.33a2.39,2.39,0,0,1-2.4-2.4,2.39,2.39,0,0,1,2.4-2.4,2.39,2.39,0,0,1,2.4,2.4,2.39,2.39,0,0,1-2.4,2.4Zm13.46,0a2.39,2.39,0,0,1-2.4-2.4,2.39,2.39,0,0,1,2.4-2.4,2.39,2.39,0,0,1,2.4,2.4,2.39,2.39,0,0,1-2.4,2.4ZM9.67,22.43a2.27,2.27,0,0,1-2-3.43l2-3.7-5-10.63H2.07v-2H5.93L11.6,14.8h9.73l5.2-9.33,1.74.93-5.1,9.23a2.16,2.16,0,0,1-.82.87,2.37,2.37,0,0,1-1.22.3h-10L9.07,20.43H25.53v2Z"
        fill="white" />
</svg>