<svg xmlns="http://www.w3.org/2000/svg" viewBox="0 0 32 32">
    <path
        d="M12.83,18.27,14,14.43,10.87,12h3.86L16,8l1.23,4h3.9L18,14.43l1.16,3.84L16,15.9Zm-4.7,12.4V20.53A9.51,9.51,0,0,1,6,17.1a11.46,11.46,0,0,1-.65-3.77A10.47,10.47,0,0,1,16,2.67,10.47,10.47,0,0,1,26.67,13.33,11.46,11.46,0,0,1,26,17.1a9.51,9.51,0,0,1-2.15,3.43V30.67L16,28ZM16,22a8.37,8.37,0,0,0,6.15-2.52,8.34,8.34,0,0,0,2.52-6.15A8.59,8.59,0,0,0,16,4.67a8.59,8.59,0,0,0-8.67,8.66,8.34,8.34,0,0,0,2.52,6.15A8.37,8.37,0,0,0,16,22Z"
        fill="white" />
</svg>