<svg xmlns="http://www.w3.org/2000/svg" viewBox="0 0 32 32">
    <path
        d="M14.67,28V26H26V15.87a8.77,8.77,0,0,0-.83-3.72A10.64,10.64,0,0,0,22.93,9a11,11,0,0,0-3.2-2.18,8.89,8.89,0,0,0-7.46,0A11,11,0,0,0,9.07,9a10.64,10.64,0,0,0-2.24,3.15A8.77,8.77,0,0,0,6,15.87V24H5.33a2.66,2.66,0,0,1-2.66-2.67V18.67A2.52,2.52,0,0,1,3,17.32a2.94,2.94,0,0,1,1-.95l.1-1.77a12.14,12.14,0,0,1,1.38-4.4,12,12,0,0,1,2.7-3.33,12.16,12.16,0,0,1,3.64-2.12A11.89,11.89,0,0,1,16,4a12,12,0,0,1,4.22.75,11.71,11.71,0,0,1,3.61,2.13,12.43,12.43,0,0,1,2.69,3.34,11.94,11.94,0,0,1,1.38,4.35L28,16.3a2.39,2.39,0,0,1,1.33,2.17v3.06a2.35,2.35,0,0,1-.36,1.3,2.46,2.46,0,0,1-1,.87V26a2,2,0,0,1-2,2ZM12,18.33a1,1,0,0,1-.7-.3,1,1,0,0,1-.3-.73.9.9,0,0,1,.3-.68,1,1,0,0,1,.73-.29,1,1,0,0,1,1,1,1,1,0,0,1-.28.7A1,1,0,0,1,12,18.33Zm8,0a1,1,0,0,1-.7-.3,1,1,0,0,1-.3-.73.9.9,0,0,1,.3-.68,1,1,0,0,1,.73-.29,1,1,0,0,1,1,1,1,1,0,0,1-.28.7A1,1,0,0,1,20,18.33ZM8,16.6A7.73,7.73,0,0,1,8.58,13a8.28,8.28,0,0,1,1.84-2.71A7.92,7.92,0,0,1,13.07,8.6a8,8,0,0,1,3-.6,7.22,7.22,0,0,1,5.1,1.92A8.12,8.12,0,0,1,23.7,14.7,9.63,9.63,0,0,1,18.18,13,11.09,11.09,0,0,1,14.5,8.73a10.77,10.77,0,0,1-2.25,4.79A10.34,10.34,0,0,1,8,16.6Z"
        fill="white" />
</svg>