<svg xmlns="http://www.w3.org/2000/svg" viewBox="0 0 32 32">
    <path
        d="M7.47,26.63a3.8,3.8,0,0,1-2.79-1.15A3.8,3.8,0,0,1,3.53,22.7H1.33V7.33a1.92,1.92,0,0,1,.6-1.4,1.92,1.92,0,0,1,1.4-.6h19.3V10.9h3.5l4.54,6V22.7H28.3a3.93,3.93,0,0,1-3.93,3.93,3.93,3.93,0,0,1-3.94-3.93h-9a3.76,3.76,0,0,1-1.15,2.78A3.77,3.77,0,0,1,7.47,26.63Zm0-2a1.93,1.93,0,1,0,0-3.86,1.93,1.93,0,1,0,0,3.86Zm16.9,0a1.93,1.93,0,1,0,0-3.86,1.93,1.93,0,1,0,0,3.86Zm-1.74-6.8h6.2l-3.7-4.93h-2.5Z"
        fill="white" />
</svg>