<svg width="46" height="46" viewBox="0 0 46 46" fill="none" xmlns="http://www.w3.org/2000/svg">
<path d="M4.26491 34.0674L1.91699 32.3424L10.9253 17.9674L16.6753 24.6758L24.2941 12.3133L29.517 20.0758C29.0059 20.1397 28.5107 20.2435 28.0316 20.3872C27.5524 20.531 27.0732 20.6987 26.5941 20.8904L24.4378 17.5841L17.1066 29.5154L11.3087 22.7591L4.26491 34.0674ZM42.0232 44.082L35.6024 37.6612C34.9316 38.1404 34.2048 38.5077 33.4222 38.7633C32.6396 39.0188 31.833 39.1466 31.0024 39.1466C28.7344 39.1466 26.8097 38.356 25.2284 36.7747C23.6472 35.1935 22.8566 33.2688 22.8566 31.0008C22.8566 28.7327 23.6472 26.8081 25.2284 25.2268C26.8097 23.6456 28.7344 22.8549 31.0024 22.8549C33.2705 22.8549 35.1951 23.6456 36.7764 25.2268C38.3576 26.8081 39.1482 28.7327 39.1482 31.0008C39.1482 31.8313 39.0125 32.6379 38.7409 33.4206C38.4694 34.2032 38.11 34.9459 37.6628 35.6487L44.0837 42.0216L42.0232 44.082ZM31.0024 36.2716C32.4718 36.2716 33.7177 35.7605 34.7399 34.7383C35.7621 33.7161 36.2732 32.4702 36.2732 31.0008C36.2732 29.5313 35.7621 28.2855 34.7399 27.2633C33.7177 26.2411 32.4718 25.7299 31.0024 25.7299C29.533 25.7299 28.2871 26.2411 27.2649 27.2633C26.2427 28.2855 25.7316 29.5313 25.7316 31.0008C25.7316 32.4702 26.2427 33.7161 27.2649 34.7383C28.2871 35.7605 29.533 36.2716 31.0024 36.2716ZM34.5482 20.5549C34.0691 20.3633 33.5739 20.2355 33.0628 20.1716C32.5517 20.1077 32.0246 20.0438 31.4816 19.9799L41.7357 3.83203L44.0837 5.55703L34.5482 20.5549Z" fill="#8491A6"/>
</svg>
