<svg width="46" height="46" viewBox="0 0 46 46" fill="none" xmlns="http://www.w3.org/2000/svg">
<path d="M0 34.5V31.9604C0 30.7146 0.670833 29.7083 2.0125 28.9417C3.35417 28.175 5.07917 27.7917 7.1875 27.7917C7.60278 27.7917 7.98611 27.7997 8.3375 27.8156C8.68889 27.8316 9.04028 27.8715 9.39167 27.9354C9.13611 28.4785 8.94444 29.0295 8.81667 29.5885C8.68889 30.1476 8.625 30.7465 8.625 31.3854V34.5H0ZM11.5 34.5V31.3854C11.5 29.309 12.5622 27.6319 14.6865 26.3542C16.8108 25.0764 19.5819 24.4375 23 24.4375C26.45 24.4375 29.2292 25.0764 31.3375 26.3542C33.4458 27.6319 34.5 29.309 34.5 31.3854V34.5H11.5ZM37.375 34.5V31.3854C37.375 30.7465 37.3191 30.1476 37.2073 29.5885C37.0955 29.0295 36.9118 28.4785 36.6562 27.9354C37.0076 27.8715 37.359 27.8316 37.7104 27.8156C38.0618 27.7997 38.4292 27.7917 38.8125 27.7917C40.9847 27.7917 42.7257 28.175 44.0354 28.9417C45.3451 29.7083 46 30.7146 46 31.9604V34.5H37.375ZM23 27.3125C20.4444 27.3125 18.3681 27.6958 16.7708 28.4625C15.1736 29.2292 14.375 30.2035 14.375 31.3854V31.625H31.625V31.3375C31.625 30.1875 30.8344 29.2292 29.2531 28.4625C27.6719 27.6958 25.5875 27.3125 23 27.3125ZM7.1875 26.3542C6.26111 26.3542 5.47049 26.0267 4.81563 25.3719C4.16076 24.717 3.83333 23.9264 3.83333 23C3.83333 22.0736 4.16076 21.283 4.81563 20.6281C5.47049 19.9733 6.26111 19.6458 7.1875 19.6458C8.11389 19.6458 8.90451 19.9733 9.55937 20.6281C10.2142 21.283 10.5417 22.0736 10.5417 23C10.5417 23.9264 10.2142 24.717 9.55937 25.3719C8.90451 26.0267 8.11389 26.3542 7.1875 26.3542ZM38.8125 26.3542C37.8861 26.3542 37.0955 26.0267 36.4406 25.3719C35.7858 24.717 35.4583 23.9264 35.4583 23C35.4583 22.0736 35.7858 21.283 36.4406 20.6281C37.0955 19.9733 37.8861 19.6458 38.8125 19.6458C39.7389 19.6458 40.5295 19.9733 41.1844 20.6281C41.8392 21.283 42.1667 22.0736 42.1667 23C42.1667 23.9264 41.8392 24.717 41.1844 25.3719C40.5295 26.0267 39.7389 26.3542 38.8125 26.3542ZM23 23C21.4028 23 20.0451 22.441 18.9271 21.3229C17.809 20.2049 17.25 18.8472 17.25 17.25C17.25 15.6208 17.809 14.2552 18.9271 13.1531C20.0451 12.051 21.4028 11.5 23 11.5C24.6292 11.5 25.9948 12.051 27.0969 13.1531C28.199 14.2552 28.75 15.6208 28.75 17.25C28.75 18.8472 28.199 20.2049 27.0969 21.3229C25.9948 22.441 24.6292 23 23 23ZM23 14.375C22.2014 14.375 21.5226 14.6465 20.9635 15.1896C20.4045 15.7326 20.125 16.4194 20.125 17.25C20.125 18.0486 20.4045 18.7274 20.9635 19.2865C21.5226 19.8455 22.2014 20.125 23 20.125C23.8306 20.125 24.5174 19.8455 25.0604 19.2865C25.6035 18.7274 25.875 18.0486 25.875 17.25C25.875 16.4194 25.6035 15.7326 25.0604 15.1896C24.5174 14.6465 23.8306 14.375 23 14.375Z" fill="#8491A6"/>
</svg>
