<svg width="64" height="64" viewBox="0 0 64 64" fill="none" xmlns="http://www.w3.org/2000/svg">
<path d="M14.4763 33C13.9598 30.4574 14.0809 27.8266 14.829 25.3423C15.5771 22.858 16.9287 20.5976 18.7633 18.7631C20.5979 16.9285 22.8582 15.5769 25.3425 14.8288C27.8268 14.0808 30.4577 13.9596 33.0002 14.4762V5.70984C29.3027 5.23036 25.5444 5.60605 22.015 6.80796C18.4855 8.00987 15.2791 10.0059 12.6426 12.6424C10.0062 15.2788 8.01012 18.4853 6.8082 22.0147C5.60629 25.5442 5.2306 29.3024 5.71008 33H14.4763ZM23.9013 10.6931C24.2439 10.5414 24.5899 10.3973 24.9388 10.2608C25.0459 10.2188 25.1602 10.1982 25.2752 10.2003C25.3902 10.2025 25.5037 10.2273 25.6091 10.2733C25.7145 10.3193 25.8098 10.3857 25.8896 10.4686C25.9693 10.5515 26.0319 10.6493 26.0738 10.7564C26.1157 10.8636 26.1361 10.9779 26.1338 11.0929C26.1314 11.2079 26.1065 11.3213 26.0603 11.4267C26.014 11.532 25.9475 11.6272 25.8645 11.7068C25.7814 11.7864 25.6835 11.8489 25.5763 11.8906C25.2514 12.0179 24.9293 12.1522 24.6101 12.2933C24.3985 12.3837 24.1598 12.3871 23.9458 12.3028C23.7317 12.2186 23.5594 12.0533 23.4663 11.843C23.3731 11.6326 23.3666 11.394 23.448 11.1788C23.5295 10.9637 23.6925 10.7892 23.9016 10.6933L23.9013 10.6931ZM15.6752 16.4708C15.9333 16.2012 16.2002 15.9333 16.47 15.676C16.5528 15.5957 16.6507 15.5326 16.758 15.4902C16.8653 15.4479 16.9799 15.4272 17.0952 15.4294C17.2106 15.4315 17.3243 15.4565 17.43 15.5027C17.5357 15.549 17.6311 15.6157 17.7109 15.699C17.7907 15.7823 17.8532 15.8806 17.8949 15.9882C17.9366 16.0957 17.9565 16.2105 17.9537 16.3258C17.9509 16.4411 17.9252 16.5547 17.8783 16.6601C17.8314 16.7655 17.7641 16.8606 17.6803 16.9398C17.4292 17.1803 17.1803 17.4297 16.9392 17.6811C16.7784 17.8472 16.5583 17.9429 16.3272 17.9472C16.096 17.9516 15.8725 17.8643 15.7055 17.7044C15.5385 17.5445 15.4416 17.325 15.4359 17.0939C15.4302 16.8627 15.5163 16.6387 15.6752 16.4708ZM10.2593 24.9427C10.396 24.5934 10.5403 24.247 10.6921 23.904C10.7372 23.7968 10.8031 23.6997 10.8862 23.6183C10.9692 23.5369 11.0676 23.4728 11.1757 23.4299C11.2838 23.387 11.3993 23.3661 11.5156 23.3683C11.6318 23.3706 11.7465 23.396 11.8528 23.443C11.9591 23.4901 12.055 23.5578 12.1348 23.6424C12.2147 23.7269 12.2769 23.8265 12.3178 23.9354C12.3587 24.0442 12.3774 24.1601 12.373 24.2763C12.3686 24.3925 12.3411 24.5067 12.2921 24.6121C12.1506 24.9318 12.0162 25.2546 11.8888 25.5802C11.804 25.796 11.6371 25.9692 11.4246 26.062C11.2122 26.1547 10.9716 26.1594 10.7557 26.075C10.5399 25.9905 10.3663 25.8239 10.2732 25.6116C10.1801 25.3993 10.175 25.1587 10.2591 24.9427H10.2593ZM29.524 30.3785C29.409 30.3786 29.2952 30.356 29.189 30.312C29.0828 30.2681 28.9864 30.2036 28.9052 30.1222L25.5628 26.7847C23.9246 28.6585 22.9448 31.017 22.7728 33.5H27.5103C27.7424 33.5 27.965 33.5922 28.1291 33.7562C28.2931 33.9203 28.3853 34.1429 28.3853 34.375C28.3853 34.607 28.2931 34.8296 28.1291 34.9937C27.965 35.1578 27.7424 35.25 27.5103 35.25H22.7728C22.9687 37.7241 23.9457 40.0721 25.5627 41.955L28.9052 38.61C28.9861 38.5275 29.0824 38.4618 29.1888 38.4168C29.2952 38.3718 29.4094 38.3483 29.5249 38.3476C29.6404 38.347 29.7549 38.3693 29.8617 38.4132C29.9686 38.457 30.0657 38.5216 30.1474 38.6032C30.2292 38.6848 30.2939 38.7818 30.338 38.8886C30.382 38.9954 30.4045 39.1098 30.404 39.2253C30.4036 39.3408 30.3803 39.4551 30.3354 39.5615C30.2906 39.668 30.2251 39.7645 30.1427 39.8455L26.7968 43.186C28.6812 44.7969 31.0285 45.7676 33.5002 45.9583V41.2398C33.5002 41.0078 33.5924 40.7852 33.7565 40.6211C33.9206 40.457 34.1431 40.3648 34.3752 40.3648C34.6073 40.3648 34.8298 40.457 34.9939 40.6211C35.158 40.7852 35.2502 41.0078 35.2502 41.2398V45.9557C37.7206 45.7575 40.0645 44.7812 41.9452 43.1671L38.6252 39.8448C38.4611 39.6805 38.369 39.4577 38.3692 39.2254C38.3694 38.9932 38.4618 38.7705 38.6261 38.6064C38.7905 38.4423 39.0133 38.3502 39.2456 38.3504C39.4778 38.3506 39.7005 38.443 39.8646 38.6073L43.1855 41.9323C44.7932 40.0543 45.7637 37.7146 45.9572 35.25H41.2603C41.0283 35.25 40.8057 35.1578 40.6416 34.9937C40.4775 34.8296 40.3853 34.607 40.3853 34.375C40.3853 34.1429 40.4775 33.9203 40.6416 33.7562C40.8057 33.5922 41.0283 33.5 41.2603 33.5H45.9572C45.7641 31.0321 44.7939 28.6888 43.186 26.8067L39.8655 30.125C39.7011 30.2891 39.4782 30.3811 39.246 30.3809C39.0137 30.3807 38.791 30.2883 38.6269 30.1239C38.4628 29.9595 38.3707 29.7367 38.3709 29.5044C38.3711 29.2721 38.4636 29.0494 38.628 28.8853L41.9451 25.5625C40.0645 23.9484 37.7206 22.9721 35.2502 22.774V27.4898C35.2502 27.7219 35.158 27.9445 34.9939 28.1086C34.8298 28.2727 34.6073 28.3648 34.3752 28.3648C34.1431 28.3648 33.9206 28.2727 33.7565 28.1086C33.5924 27.9445 33.5002 27.7219 33.5002 27.4898V22.7713C31.0285 22.9622 28.6812 23.9331 26.7968 25.544L30.1402 28.8847C30.2624 29.0069 30.3457 29.1626 30.3796 29.3321C30.4134 29.5016 30.3963 29.6774 30.3304 29.8372C30.2645 29.997 30.1527 30.1336 30.0092 30.23C29.8657 30.3263 29.6968 30.378 29.524 30.3785ZM34.3651 30.9898C35.0326 30.9898 35.6851 31.1878 36.2401 31.5586C36.7951 31.9295 37.2277 32.4566 37.4832 33.0733C37.7386 33.69 37.8055 34.3686 37.6752 35.0233C37.545 35.678 37.2236 36.2793 36.7516 36.7513C36.2796 37.2233 35.6782 37.5448 35.0235 37.675C34.3688 37.8052 33.6902 37.7384 33.0735 37.4829C32.4568 37.2275 31.9297 36.7949 31.5589 36.2399C31.188 35.6849 30.9901 35.0324 30.9901 34.3648C30.9911 33.47 31.347 32.6122 31.9797 31.9795C32.6124 31.3467 33.4703 30.9908 34.3651 30.9898Z" fill="#8491A6"/>
<path d="M20.0136 20.0125C18.2623 21.7679 17.0078 23.9562 16.378 26.3545C15.7482 28.7528 15.7657 31.2752 16.4286 33.6645C16.4647 33.7925 16.4703 33.9272 16.4449 34.0578C16.4194 34.1884 16.3637 34.3111 16.2822 34.4162C16.2 34.5221 16.0943 34.6074 15.9734 34.6653C15.8526 34.7232 15.7199 34.7522 15.5858 34.75H10.2461C10.4657 47.875 21.2002 58.4777 34.366 58.4777C47.6686 58.4777 58.4785 47.6614 58.4785 34.3587C58.4788 21.1931 47.8761 10.4646 34.7511 10.2451V15.5847C34.7539 15.7188 34.7252 15.8516 34.6673 15.9726C34.6094 16.0936 34.524 16.1993 34.4179 16.2812C34.3118 16.3632 34.1879 16.4192 34.0563 16.4446C33.9246 16.47 33.7889 16.4643 33.6598 16.4277C31.2715 15.7647 28.7499 15.7472 26.3525 16.377C23.9552 17.0068 21.7678 18.2613 20.0136 20.0125ZM34.3657 20.9896H34.3927C37.8677 20.9944 41.2034 22.356 43.689 24.7844C43.8019 24.8542 43.897 24.9494 43.9666 25.0624C46.3414 27.5044 47.6912 30.7631 47.7386 34.1691C47.7689 34.2978 47.7689 34.4318 47.7386 34.5605C47.6911 37.9663 46.3415 41.2248 43.9668 43.6667C43.8972 43.7796 43.8023 43.8748 43.6896 43.9446C41.2039 46.373 37.8681 47.7347 34.3931 47.7395H34.3661C30.8188 47.7395 27.4168 46.3303 24.9085 43.822C22.4002 41.3137 20.9911 37.9118 20.9911 34.3645C20.9911 30.8172 22.4002 27.4152 24.9085 24.9069C27.4168 22.3986 30.8188 20.9895 34.3661 20.9895L34.3657 20.9896Z" fill="#8491A6"/>
<path d="M34.3652 35.9897C35.2627 35.9897 35.9902 35.2622 35.9902 34.3647C35.9902 33.4673 35.2627 32.7397 34.3652 32.7397C33.4678 32.7397 32.7402 33.4673 32.7402 34.3647C32.7402 35.2622 33.4678 35.9897 34.3652 35.9897Z" fill="#8491A6"/>
</svg>
