<svg width="64" height="64" viewBox="0 0 64 64" fill="none" xmlns="http://www.w3.org/2000/svg">
<path d="M3.51925 59.125H8.492C8.7237 59.125 8.94593 59.0331 9.10997 58.8695C9.274 58.7058 9.36644 58.4838 9.367 58.2521L9.392 47.875H16.0191C16.133 47.8746 16.2457 47.8516 16.3507 47.8073C16.4556 47.7629 16.5507 47.6982 16.6303 47.6167C16.71 47.5353 16.7726 47.4388 16.8146 47.333C16.8566 47.2271 16.8772 47.1139 16.875 47V44.5C16.8772 44.3861 16.8566 44.2729 16.8146 44.1671C16.7726 44.0612 16.71 43.9647 16.6303 43.8833C16.5507 43.8019 16.4557 43.7371 16.3508 43.6928C16.2458 43.6484 16.1332 43.6254 16.0193 43.625H7.5V5.75C7.49564 5.51597 7.39942 5.29304 7.23211 5.12933C7.0648 4.96562 6.83983 4.87427 6.60575 4.875H3.51925C3.28517 4.87427 3.0602 4.96562 2.89289 5.12933C2.72558 5.29304 2.62936 5.51597 2.625 5.75V58.25C2.62936 58.484 2.72558 58.707 2.89289 58.8707C3.0602 59.0344 3.28517 59.1257 3.51925 59.125ZM47.125 44.5V47C47.1228 47.1139 47.1434 47.2271 47.1854 47.3329C47.2274 47.4388 47.29 47.5353 47.3697 47.6167C47.4493 47.6981 47.5443 47.7629 47.6493 47.8072C47.7542 47.8516 47.8669 47.8746 47.9808 47.875H54.6079L54.6329 58.2521C54.6334 58.4838 54.7259 58.7058 54.8899 58.8695C55.0539 59.0331 55.2762 59.125 55.5079 59.125H60.4806C60.7147 59.1258 60.9397 59.0344 61.1071 58.8707C61.2744 58.707 61.3706 58.4841 61.375 58.25V5.75C61.3706 5.51597 61.2744 5.29304 61.1071 5.12933C60.9398 4.96562 60.7148 4.87427 60.4808 4.875H57.3942C57.1602 4.87427 56.9352 4.96562 56.7679 5.12933C56.6006 5.29304 56.5044 5.51597 56.5 5.75V43.625H47.9808C47.8669 43.6254 47.7542 43.6484 47.6493 43.6928C47.5443 43.7371 47.4493 43.8019 47.3697 43.8833C47.29 43.9647 47.2274 44.0612 47.1854 44.1671C47.1434 44.2729 47.1228 44.3861 47.125 44.5ZM48.1284 20.2869C47.8534 18.6343 47.251 15.196 46.7826 13.9391C46.0695 12.0241 44.7108 10.875 43.1479 10.875H20.9C19.315 10.875 17.8375 12.096 17.2226 13.9043C16.7864 15.1884 16.1643 18.6315 15.8776 20.2881C18.2924 20.5268 25.0802 21.1334 31.8167 21.1334C38.5935 21.1334 45.6554 20.5231 48.1284 20.2869ZM24.5938 29.375H39.3543C40.0684 29.375 40.9284 28.7333 41.1584 28.0571L41.4241 27.25H22.5602L22.8161 28.0598C23.0405 28.7465 23.8713 29.375 24.5938 29.375Z" fill="#8491A6"/>
<path d="M17.6611 28.699C17.0361 27.7952 16.0131 27.3374 14.5354 27.3005C13.9729 27.2864 12.0797 27.2919 11 27.2967V29.375H17.9356C17.8853 29.1351 17.7924 28.9061 17.6611 28.699Z" fill="#8491A6"/>
<path d="M14.0594 35.875H49.9406C50.3395 35.8805 50.7354 35.8068 51.1056 35.6583C51.4758 35.5098 51.8129 35.2894 52.0974 35.0098C52.3819 34.7303 52.6081 34.3971 52.7631 34.0295C52.918 33.662 52.9985 33.2674 53 32.8685V31.125H45.0732C44.8412 31.125 44.6186 31.0328 44.4545 30.8687C44.2904 30.7046 44.1982 30.4821 44.1982 30.25C44.1982 30.0931 44.2179 28.6887 44.8999 27.7034C45.8526 26.3266 47.3737 25.6026 49.4209 25.5514C49.9466 25.5381 51.5376 25.5412 52.6569 25.5455C52.4096 25.0605 52.0897 24.6162 51.7081 24.228C51.2259 23.7319 49.6948 22.5716 48.8831 21.972C47.1538 22.145 39.3148 22.8854 31.8167 22.8854C24.2834 22.8854 16.6931 22.138 15.0761 21.9692C14.258 22.5894 12.718 23.78 12.2814 24.2237C11.9091 24.6151 11.5984 25.0607 11.3601 25.5455C12.4672 25.5411 14.0511 25.5379 14.5791 25.5512C16.6261 25.6024 18.1473 26.3262 19.1 27.703C19.782 28.6885 19.8016 30.0931 19.8016 30.25C19.8016 30.4821 19.7094 30.7046 19.5453 30.8687C19.3812 31.0328 19.1587 31.125 18.9266 31.125H11V32.8685C11.0015 33.2674 11.082 33.662 11.2369 34.0295C11.3919 34.3971 11.6181 34.7303 11.9026 35.0098C12.1871 35.2894 12.5242 35.5098 12.8944 35.6583C13.2646 35.8068 13.6605 35.8805 14.0594 35.875ZM38.4523 33.625H25.5478C25.3157 33.625 25.0931 33.5328 24.929 33.3687C24.7649 33.2046 24.6728 32.9821 24.6728 32.75C24.6728 32.5179 24.7649 32.2954 24.929 32.1313C25.0931 31.9672 25.3157 31.875 25.5478 31.875H38.4523C38.6843 31.875 38.9069 31.9672 39.071 32.1313C39.2351 32.2954 39.3273 32.5179 39.3273 32.75C39.3273 32.9821 39.2351 33.2046 39.071 33.3687C38.9069 33.5328 38.6843 33.625 38.4523 33.625ZM20.6459 25.8841C20.7258 25.7693 20.8315 25.6748 20.9545 25.6081C21.0775 25.5414 21.2143 25.5044 21.3541 25.5H42.6459C42.7865 25.5052 42.924 25.543 43.0475 25.6105C43.171 25.6779 43.2771 25.7732 43.3575 25.8887C43.4378 26.0043 43.4902 26.1369 43.5104 26.2762C43.5307 26.4154 43.5183 26.5575 43.4743 26.6911L42.8151 28.6375C42.3424 30.0272 40.8221 31.125 39.3543 31.125H24.5938C23.1215 31.125 21.6099 30.0256 21.1526 28.6259L20.5224 26.6824C20.4795 26.5489 20.4683 26.4072 20.4897 26.2686C20.5112 26.1301 20.5646 25.9984 20.6459 25.8841ZM14 37.6764V40.5285C14 40.595 14.052 40.625 14.1185 40.625H17.1901C17.2566 40.625 17.25 40.595 17.25 40.5285V37.625H14.0594C14.0387 37.625 14 37.6766 14 37.6764Z" fill="#8491A6"/>
<path d="M49.4645 27.3001C47.9865 27.3376 46.9645 27.7951 46.3385 28.6989C46.2081 28.9065 46.115 29.1353 46.0635 29.3749H52.9996V27.2966C51.9016 27.2917 50.0202 27.2862 49.4645 27.3001ZM49.9996 40.5286V37.6764C49.9996 37.6764 49.961 37.6251 49.9402 37.6251H46.4996V40.5286C46.4996 40.5951 46.5246 40.6251 46.591 40.6251H49.8814C49.9479 40.6251 49.9996 40.5951 49.9996 40.5286Z" fill="#8491A6"/>
</svg>
