<svg width="64" height="64" viewBox="0 0 64 64" fill="none" xmlns="http://www.w3.org/2000/svg">
<path d="M49.8497 15.3789C49.9417 15.2869 50.0531 15.2165 50.1758 15.1729L52.9329 14.1947L55.9034 9.11442L54.8852 8.09617L49.8049 11.0665L48.8267 13.8237C48.7831 13.9463 48.7127 14.0577 48.6207 14.1498L37.1435 25.6269L38.3727 26.856L49.8497 15.3789ZM29.2122 27.3918C29.1315 27.4725 29.0674 27.5683 29.0237 27.6737C28.98 27.7792 28.9576 27.8922 28.9576 28.0064C28.9576 28.1205 28.98 28.2335 29.0237 28.339C29.0674 28.4444 29.1315 28.5402 29.2122 28.6209L35.3784 34.7872C35.4591 34.8682 35.5549 34.9325 35.6604 34.9764C35.7659 35.0204 35.8791 35.043 35.9934 35.0432C36.1077 35.0433 36.2209 35.0209 36.3266 34.9772C36.4322 34.9335 36.5282 34.8694 36.609 34.7886C36.6898 34.7078 36.7539 34.6118 36.7976 34.5062C36.8413 34.4005 36.8637 34.2873 36.8635 34.173C36.8634 34.0587 36.8407 33.9456 36.7968 33.84C36.7529 33.7345 36.6886 33.6387 36.6075 33.558L30.4413 27.3918C30.3606 27.3111 30.2648 27.247 30.1593 27.2034C30.0539 27.1597 29.9409 27.1372 29.8267 27.1372C29.7126 27.1372 29.5996 27.1597 29.4941 27.2034C29.3887 27.247 29.2929 27.3111 29.2122 27.3918ZM22.2007 27.4663C22.3629 27.3923 22.5439 27.3696 22.7194 27.4013C22.8949 27.433 23.0565 27.5176 23.1825 27.6437L25.7622 30.2232L27.526 29.2579C27.3924 29.012 27.2995 28.7461 27.251 28.4704L25.5734 26.7929C25.4093 26.6288 25.3171 26.4062 25.3171 26.1742C25.3171 25.9421 25.4093 25.7195 25.5734 25.5554C25.7375 25.3913 25.9601 25.2991 26.1922 25.2991C26.4242 25.2991 26.6468 25.3913 26.8109 25.5554L27.7164 26.4609C27.795 26.3525 27.8816 26.2501 27.9755 26.1547C28.2182 25.9107 28.5068 25.7173 28.8247 25.5856C29.1426 25.4539 29.4835 25.3866 29.8275 25.3875C29.835 25.3875 29.8424 25.3885 29.8498 25.3887L27.6442 23.1829C27.5181 23.0568 27.4335 22.8952 27.4018 22.7197C27.3701 22.5443 27.3928 22.3633 27.4668 22.201C28.3596 20.227 28.6312 18.0282 28.2456 15.8962C27.86 13.7642 26.8354 11.7999 25.3078 10.2635C24.0881 9.03544 22.5856 8.12541 20.9322 7.61328C19.2788 7.10115 17.525 7.00256 15.8247 7.32617L19.4147 10.9162C19.5166 11.0181 19.5917 11.1436 19.6334 11.2815C19.6751 11.4195 19.6821 11.5656 19.6538 11.7069L18.4482 17.7194C18.4136 17.892 18.3277 18.0501 18.2018 18.1732C18.0759 18.2962 17.9159 18.3784 17.7425 18.409L11.5288 19.5072C11.3897 19.5318 11.2468 19.5223 11.1121 19.4797C10.9775 19.437 10.8552 19.3624 10.7557 19.2622L7.32817 15.811C7.00149 17.5133 7.09828 19.2697 7.61002 20.9257C8.12176 22.5818 9.03275 24.0866 10.2628 25.3078C11.7992 26.8354 13.7637 27.8599 15.8957 28.2454C18.0278 28.6309 20.2266 28.3592 22.2007 27.4663ZM33.5413 27.2323L34.9075 25.866L38.1338 29.092L36.7675 30.4583L33.5413 27.2323ZM26.0173 32.0784L26.0122 32.0812L23.0162 33.7208L8.8758 47.8612C8.23577 48.5027 7.87634 49.372 7.87634 50.2782C7.87634 51.1844 8.23577 52.0536 8.8758 52.6952L11.3044 55.1238C11.9459 55.7639 12.8152 56.1234 13.7214 56.1234C14.6277 56.1234 15.4969 55.7639 16.1384 55.1238L30.2788 40.9834L31.9183 37.9874L31.9214 37.9817L33.3988 35.2817L28.7174 30.6003L26.0173 32.0784ZM12.8649 49.6588C12.7008 49.8229 12.4782 49.9151 12.2462 49.9151C12.0141 49.9151 11.7915 49.8229 11.6274 49.6588C11.4633 49.4947 11.3711 49.2721 11.3711 49.0401C11.3711 48.808 11.4633 48.5854 11.6274 48.4213L21.6934 38.3553C21.8575 38.1912 22.0801 38.099 22.3122 38.099C22.5442 38.099 22.7668 38.1912 22.9309 38.3553C23.095 38.5194 23.1872 38.742 23.1872 38.974C23.1872 39.2061 23.095 39.4287 22.9309 39.5928L12.8649 49.6588ZM25.6442 42.306L15.5782 52.372C15.4141 52.5362 15.1915 52.6283 14.9594 52.6283C14.7273 52.6283 14.5048 52.5362 14.3407 52.372C14.1766 52.2079 14.0844 51.9854 14.0844 51.7533C14.0844 51.5212 14.1766 51.2987 14.3407 51.1345L24.4065 41.0686C24.5707 40.9044 24.7932 40.8123 25.0253 40.8123C25.2574 40.8123 25.4799 40.9044 25.644 41.0686C25.8081 41.2327 25.9003 41.4552 25.9003 41.6873C25.9003 41.9194 25.8081 42.1419 25.644 42.306H25.6442ZM38.6122 34.1727C38.6131 34.5168 38.5458 34.8576 38.4141 35.1755C38.2824 35.4934 38.089 35.782 37.845 36.0247C37.7497 36.1187 37.6473 36.2053 37.5388 36.2838L50.5872 49.3316C50.6684 49.4128 50.7329 49.5093 50.7769 49.6154C50.8208 49.7216 50.8435 49.8354 50.8435 49.9503C50.8435 50.0652 50.8208 50.179 50.7769 50.2852C50.7329 50.3913 50.6684 50.4878 50.5872 50.569C50.5059 50.6503 50.4095 50.7148 50.3033 50.7587C50.1971 50.8027 50.0833 50.8253 49.9684 50.8253C49.8535 50.8253 49.7397 50.8027 49.6336 50.7587C49.5274 50.7148 49.4309 50.6503 49.3497 50.569L35.5297 36.749C35.254 36.7006 34.9881 36.6077 34.7422 36.474L33.7764 38.2374L51.4669 55.928C52.0597 56.514 52.8602 56.8416 53.6937 56.8392C54.5271 56.8368 55.3258 56.5046 55.9152 55.9153C56.5045 55.3259 56.8367 54.5273 56.8391 53.6938C56.8415 52.8604 56.514 52.0598 55.928 51.467L38.6113 34.1499C38.6114 34.1578 38.6122 34.1652 38.6122 34.1727Z" fill="#8491A6"/>
</svg>
