<svg width="64" height="64" viewBox="0 0 64 64" fill="none" xmlns="http://www.w3.org/2000/svg">
<path d="M32.0004 37.8335C35.2221 37.8335 37.8337 35.2218 37.8337 32.0001C37.8337 28.7784 35.2221 26.1667 32.0004 26.1667C28.7787 26.1667 26.167 28.7784 26.167 32.0001C26.167 35.2218 28.7787 37.8335 32.0004 37.8335Z" fill="#8491A6"/>
<path d="M27.6621 53.6969C27.5206 52.9373 27.343 52.1848 27.13 51.4421C25.3332 45.1982 21.185 40.3591 16.0337 38.4975C14.5214 37.9485 12.925 37.6673 11.3162 37.6666C11.0836 37.6666 10.8503 37.6741 10.6172 37.686C11.6869 41.6766 13.849 45.2894 16.8603 48.118C19.8715 50.9466 23.6125 52.8787 27.6621 53.6969ZM48.2996 38.416C43.0304 40.227 38.8061 45.1305 36.9996 51.5326C36.802 52.2354 36.6357 52.9466 36.5013 53.6641C40.5176 52.821 44.2216 50.8811 47.2019 48.0598C50.1821 45.2385 52.322 41.6464 53.3838 37.6823C53.1773 37.6724 52.9705 37.6672 52.7637 37.6666C51.2444 37.6672 49.7358 37.9205 48.2996 38.416ZM18.6105 20.9C22.7618 18.8018 27.3481 17.7086 31.9996 17.7086C36.651 17.7086 41.2374 18.8018 45.3887 20.9C48.4434 22.4567 51.2074 24.5276 53.5597 27.0219C51.2952 17.2111 42.4881 9.875 31.9996 9.875C21.5111 9.875 12.704 17.2111 10.4395 27.0216C12.7917 24.5274 15.5557 22.4566 18.6105 20.9Z" fill="#8491A6"/>
<path d="M32 59.875C37.5132 59.875 42.9025 58.2402 47.4866 55.1773C52.0706 52.1143 55.6434 47.7608 57.7532 42.6673C59.863 37.5738 60.415 31.9691 59.3395 26.5619C58.2639 21.1546 55.6091 16.1878 51.7107 12.2894C46.4831 7.06183 39.393 4.125 32 4.125C24.6071 4.125 17.517 7.06182 12.2894 12.2894C7.06182 17.517 4.125 24.6071 4.125 32C4.125 39.393 7.06183 46.4831 12.2894 51.7107C14.8718 54.3072 17.9436 56.3657 21.3269 57.7672C24.7103 59.1686 28.338 59.885 32 59.875ZM32 8.12503C45.1648 8.12503 55.875 18.8353 55.875 32C55.875 45.1648 45.1648 55.875 32 55.875C18.8353 55.875 8.12503 45.1648 8.12503 32C8.12503 18.8353 18.8353 8.12503 32 8.12503Z" fill="#8491A6"/>
<path d="M16.6284 36.8517C22.3055 38.9035 26.86 44.1767 28.8115 50.9582C29.0966 51.9518 29.3225 52.9614 29.4883 53.9817C31.2113 54.1789 32.9515 54.1727 34.6731 53.9632C34.8323 52.9833 35.0468 52.0132 35.3155 51.0575C37.278 44.1032 41.9191 38.7587 47.7309 36.7611C49.3501 36.2026 51.051 35.9173 52.7639 35.9167C53.0991 35.9167 53.4358 35.9292 53.7713 35.9509C54.007 34.6472 54.1254 33.325 54.125 32.0001C54.125 31.4264 54.1033 30.8579 54.0599 30.2947C51.5212 27.0182 48.2901 24.343 44.5974 22.4604C40.6915 20.4868 36.3765 19.4585 32.0003 19.4585C27.624 19.4585 23.309 20.4868 19.4031 22.4604C15.7104 24.343 12.4793 27.0182 9.94063 30.2947C9.89688 30.8577 9.875 31.4261 9.875 32.0001C9.87462 33.3268 9.99334 34.6508 10.2298 35.9562C10.5915 35.9312 10.9548 35.9167 11.316 35.9167C13.1277 35.9173 14.9254 36.2337 16.6284 36.8517ZM32 24.4167C33.4998 24.4167 34.966 24.8615 36.2131 25.6948C37.4602 26.528 38.4322 27.7124 39.0061 29.0981C39.5801 30.4838 39.7303 32.0085 39.4377 33.4796C39.1451 34.9506 38.4228 36.3018 37.3623 37.3624C36.3017 38.4229 34.9505 39.1452 33.4794 39.4378C32.0084 39.7304 30.4836 39.5802 29.098 39.0062C27.7123 38.4323 26.5279 37.4603 25.6947 36.2132C24.8614 34.9661 24.4166 33.5 24.4166 32.0001C24.4189 29.9896 25.2186 28.062 26.6403 26.6404C28.0619 25.2187 29.9895 24.419 32 24.4167Z" fill="#8491A6"/>
</svg>
